<svg width="867" height="586" viewBox="0 0 867 586" fill="none" xmlns="http://www.w3.org/2000/svg">
<g clip-path="url(#clip0_728_1132)">
<path d="M482.733 521.289C465.707 522.172 449.418 528.509 436.272 539.364C425.071 548.717 416.595 560.912 411.733 574.671C411.451 575.458 411.191 576.244 410.945 577.034C410.549 576.201 410.166 575.35 409.787 574.508C409.544 573.968 409.295 573.42 409.06 572.875C409.317 573.808 409.579 574.75 409.867 575.677C410.193 576.159 410.515 576.633 410.836 577.106C410.859 577.127 410.879 577.162 410.902 577.184C411.032 577.375 411.161 577.566 411.277 577.753C411.833 578.565 412.398 579.373 412.954 580.184L412.458 580.198L411.215 580.227L411.219 580.236C411.636 580.244 412.062 580.247 412.482 580.242C412.635 580.248 412.801 580.258 412.957 580.251C413.018 580.012 413.092 579.775 413.167 579.539C418.28 561.723 429.668 546.359 445.227 536.286C460.787 526.213 479.466 522.112 497.814 524.74C497.59 523.743 497.317 522.761 497.022 521.78C492.283 521.202 487.501 521.037 482.733 521.289Z" fill="#777777"/>
<path d="M429.203 448.094C422.194 452.922 415.927 458.748 410.601 465.388C407.823 468.929 405.381 472.722 403.306 476.717C402.324 478.57 401.421 480.482 400.6 482.417C400.303 485.846 400.085 489.273 399.946 492.698C400.68 490.134 401.551 487.611 402.554 485.14C403.079 483.782 403.655 482.454 404.263 481.142C411.079 466.45 422.819 455.103 436.467 446.665C451.092 437.637 467.435 431.073 483.92 426.366C500.816 421.516 518.242 418.756 535.809 418.146C536.206 418.13 536.581 417.961 536.857 417.675C537.133 417.389 537.287 417.008 537.289 416.611C537.316 416.266 537.207 415.924 536.986 415.658C536.868 415.532 536.722 415.436 536.56 415.378C536.398 415.319 536.224 415.299 536.053 415.319C533.885 415.395 531.722 415.48 529.558 415.622C511.547 416.754 493.747 420.121 476.568 425.647C459.985 430.958 443.5 438.047 429.203 448.094Z" fill="#777777"/>
<path d="M391.855 585.957H32.1567C23.6312 585.947 15.4576 582.556 9.42911 576.527C3.40064 570.499 0.00962626 562.325 0 553.8V32.1567C0.00962626 23.6312 3.40064 15.4576 9.42911 9.42911C15.4576 3.40064 23.6312 0.00962626 32.1567 0H391.855C400.38 0.00962626 408.554 3.40064 414.582 9.42911C420.611 15.4576 424.002 23.6312 424.012 32.1567V553.8C424.002 562.325 420.611 570.499 414.582 576.527C408.554 582.556 400.38 585.947 391.855 585.957Z" fill="#3F3D56"/>
<path d="M392.488 565.44H31.5236C28.8955 565.437 26.376 564.392 24.5176 562.533C22.6593 560.675 21.614 558.155 21.611 555.527V30.4293C21.614 27.8012 22.6593 25.2816 24.5176 23.4233C26.376 21.5649 28.8955 20.5196 31.5236 20.5166H392.488C395.116 20.5196 397.636 21.5649 399.494 23.4233C401.352 25.2816 402.398 27.8012 402.401 30.4293V555.527C402.398 558.155 401.352 560.675 399.494 562.533C397.636 564.392 395.116 565.437 392.488 565.44Z" fill="#777777"/>
<path d="M210.638 12.5834C212.149 12.5834 213.374 11.3587 213.374 9.84786C213.374 8.33706 212.149 7.1123 210.638 7.1123C209.127 7.1123 207.902 8.33706 207.902 9.84786C207.902 11.3587 209.127 12.5834 210.638 12.5834Z" fill="#777777"/>
<path d="M374.871 408.258H49.1401C47.8643 408.257 46.6412 407.75 45.7391 406.847C44.837 405.945 44.3296 404.722 44.3281 403.447V112.509C44.3296 111.233 44.837 110.01 45.7391 109.108C46.6412 108.206 47.8643 107.699 49.1401 107.697H374.871C376.147 107.699 377.37 108.206 378.272 109.108C379.174 110.01 379.682 111.233 379.683 112.509V403.447C379.682 404.722 379.174 405.945 378.272 406.847C377.37 407.75 376.147 408.257 374.871 408.258Z" fill="#F0F0F0" fill-opacity="0.55"/>
<path d="M348.221 315.721H76.5312C75.2554 315.72 74.0323 315.212 73.1302 314.31C72.2281 313.408 71.7207 312.185 71.7192 310.909V143.602C71.7207 142.326 72.2281 141.103 73.1302 140.201C74.0323 139.299 75.2554 138.791 76.5312 138.79H348.221C349.496 138.792 350.72 139.299 351.622 140.201C352.524 141.103 353.031 142.326 353.033 143.602V310.909C353.031 312.185 352.524 313.408 351.622 314.31C350.72 315.212 349.496 315.72 348.221 315.721Z" fill="#777777"/>
<path d="M285.665 382.348H81.3431C78.7907 382.348 76.3428 381.334 74.538 379.53C72.7332 377.725 71.7192 375.277 71.7192 372.724C71.7192 370.172 72.7332 367.724 74.538 365.919C76.3428 364.115 78.7907 363.101 81.3431 363.101H285.665C288.218 363.101 290.666 364.115 292.471 365.919C294.275 367.724 295.289 370.172 295.289 372.724C295.289 375.277 294.275 377.725 292.471 379.53C290.666 381.334 288.218 382.348 285.665 382.348Z" fill="#777777"/>
<path d="M219.779 349.405H81.3431C78.7907 349.405 76.3428 348.391 74.538 346.586C72.7332 344.781 71.7192 342.334 71.7192 339.781C71.7192 337.229 72.7332 334.781 74.538 332.976C76.3428 331.171 78.7907 330.157 81.3431 330.157H219.779C222.331 330.157 224.779 331.171 226.584 332.976C228.389 334.781 229.403 337.229 229.403 339.781C229.403 342.334 228.389 344.781 226.584 346.586C224.779 348.391 222.331 349.405 219.779 349.405Z" fill="#777777"/>
<path d="M233.949 316.403C234.282 316.299 234.608 316.195 234.941 316.092C248.23 311.815 259.755 303.31 267.76 291.873C275.765 280.436 279.81 266.694 279.277 252.744C279.028 246.047 277.713 239.433 275.383 233.149C271.651 223.021 265.414 214.004 257.254 206.939C249.094 199.874 239.278 194.991 228.72 192.747C218.163 190.502 207.209 190.968 196.881 194.103C186.552 197.237 177.186 202.937 169.657 210.67C162.127 218.403 156.679 227.918 153.822 238.326C150.965 248.735 150.791 259.697 153.316 270.191C155.842 280.685 160.985 290.368 168.265 298.336C175.546 306.304 184.726 312.298 194.95 315.759C195.283 315.877 195.623 315.988 195.957 316.092H214.279L233.949 316.403Z" fill="#CA1D05"/>
<path d="M196.956 302.848L194.949 315.759L194.898 316.092H175.258L176.805 306.142L177.856 299.391L196.956 302.848Z" fill="#CA1D05"/>
<path d="M233.948 316.403L234 316.092L235.148 309.762L216.048 306.305L214.279 316.092L233.948 316.403Z" fill="#CA1D05"/>
<path d="M219.905 261.452C231.963 261.452 241.738 251.677 241.738 239.619C241.738 227.561 231.963 217.786 219.905 217.786C207.847 217.786 198.072 227.561 198.072 239.619C198.072 251.677 207.847 261.452 219.905 261.452Z" fill="#777777"/>
<path d="M228.878 239.071C232.898 239.071 236.156 235.813 236.156 231.793C236.156 227.774 232.898 224.516 228.878 224.516C224.859 224.516 221.601 227.774 221.601 231.793C221.601 235.813 224.859 239.071 228.878 239.071Z" fill="#3F3D56"/>
<path d="M165.039 185.748C164.078 162.098 184.461 142.066 210.565 141.006C236.67 139.945 258.61 158.258 259.571 181.908C260.532 205.558 242.386 210.932 216.281 211.992C190.177 213.052 165.999 209.398 165.039 185.748Z" fill="#0FCABF"/>
<path d="M276.659 253.381C293.854 249.44 306.79 241.869 305.552 236.471C304.315 231.073 289.373 229.892 272.179 233.833C254.984 237.775 242.048 245.346 243.285 250.744C244.523 256.141 259.465 257.322 276.659 253.381Z" fill="#CA1D05"/>
<path d="M151.261 274.235C168.456 270.293 181.392 262.722 180.154 257.324C178.917 251.926 163.975 250.746 146.781 254.687C129.586 258.628 116.65 266.199 117.887 271.597C119.125 276.995 134.067 278.176 151.261 274.235Z" fill="#CA1D05"/>
<path d="M197.887 280.42C197.196 284.218 198.043 288.135 200.239 291.309C202.436 294.483 205.804 296.655 209.602 297.346C213.4 298.037 217.317 297.191 220.491 294.994C223.666 292.797 225.837 289.429 226.528 285.631L226.533 285.606C227.965 277.696 221.849 274.897 213.939 273.465C206.028 272.033 199.319 272.51 197.887 280.42Z" fill="#777777"/>
<path d="M342.107 364.58C341.525 363.995 340.834 363.53 340.073 363.212C339.312 362.894 338.496 362.729 337.671 362.727C336.846 362.724 336.029 362.884 335.266 363.198C334.503 363.512 333.809 363.973 333.224 364.555C332.64 365.136 332.175 365.828 331.858 366.589C331.541 367.351 331.377 368.167 331.375 368.992C331.373 369.817 331.534 370.634 331.848 371.397C332.163 372.159 332.624 372.853 333.207 373.437L333.228 373.458L342.107 382.337L350.985 373.458C352.157 372.28 352.814 370.685 352.811 369.023C352.809 367.361 352.148 365.768 350.973 364.592C349.797 363.417 348.204 362.756 346.542 362.754C344.88 362.751 343.285 363.408 342.107 364.58Z" fill="#0FCABF"/>
<path d="M532.107 145.84C530.932 144.66 529.337 143.994 527.672 143.99C526.007 143.986 524.409 144.644 523.228 145.818C522.048 146.993 521.383 148.588 521.379 150.253C521.375 151.918 522.032 153.516 523.207 154.697L523.228 154.718L532.107 163.596L540.985 154.718C542.157 153.54 542.814 151.945 542.811 150.283C542.809 148.621 542.148 147.027 540.973 145.852C539.797 144.677 538.204 144.016 536.542 144.013C534.88 144.011 533.285 144.668 532.107 145.84Z" fill="#0FCABF"/>
<path d="M544.111 106.191C543.39 105.28 542.473 104.543 541.428 104.036C540.383 103.528 539.238 103.263 538.076 103.26C536.915 103.257 535.767 103.515 534.72 104.017C533.672 104.518 532.751 105.25 532.025 106.156C530.402 108.14 529.513 110.622 529.508 113.185C529.502 115.748 530.381 118.234 531.996 120.225L532.025 120.259L544.111 134.327L556.196 120.259C557.811 118.268 558.689 115.782 558.683 113.219C558.678 110.656 557.788 108.174 556.165 106.191C555.441 105.287 554.524 104.558 553.481 104.057C552.438 103.555 551.295 103.295 550.138 103.295C548.98 103.295 547.838 103.555 546.794 104.057C545.751 104.558 544.834 105.287 544.111 106.191Z" fill="#0FCABF"/>
<path d="M718.684 575.1H707.485L702.156 531.9L718.686 531.901L718.684 575.1Z" fill="#9E616A"/>
<path d="M721.541 585.957L685.428 585.955V585.498C685.428 581.771 686.909 578.195 689.545 575.56C692.181 572.924 695.756 571.443 699.484 571.442L721.541 571.443L721.541 585.957Z" fill="#CA1D05"/>
<path d="M615.454 575.1H604.254L598.926 531.9L615.456 531.901L615.454 575.1Z" fill="#9E616A"/>
<path d="M618.31 585.957L582.197 585.955V585.498C582.197 581.771 583.678 578.195 586.314 575.56C588.95 572.924 592.526 571.443 596.253 571.442L618.311 571.443L618.31 585.957Z" fill="#CA1D05"/>
<path d="M628.977 228.045L621.668 274.636L691.098 275.55L681.962 230.786L628.977 228.045Z" fill="#9E616A"/>
<path d="M623.683 263.26L601.57 322.14L598.83 566.15H617.557L662.321 370.101L703.43 561.032H721.701L708.912 346.349C708.912 346.349 712.683 303.26 693.382 277.833L688.683 264.26L623.683 263.26Z" fill="#CA1D05"/>
<path d="M718.535 309.16C716.602 308.633 714.808 307.689 713.279 306.394C711.751 305.098 710.524 303.484 709.687 301.663C708.85 299.843 708.422 297.861 708.434 295.858C708.445 293.854 708.896 291.877 709.754 290.067L680.218 193.771L701.943 189.465L728.957 283.855C731.903 285.498 734.144 288.165 735.255 291.35C736.366 294.535 736.27 298.017 734.986 301.136C733.701 304.255 731.317 306.795 728.285 308.274C725.253 309.753 721.784 310.068 718.535 309.16Z" fill="#9E616A"/>
<path d="M545.87 169.191C546.157 169.836 546.394 170.502 546.576 171.184L606.483 191.541L618.058 181.429L635.603 196.904L616.851 216.797C615.336 218.404 613.34 219.477 611.164 219.853C608.988 220.23 606.748 219.89 604.781 218.886L540.678 186.142C538.359 187.564 535.663 188.246 532.948 188.098C530.232 187.951 527.626 186.98 525.476 185.315C523.326 183.65 521.733 181.369 520.911 178.777C520.088 176.185 520.074 173.404 520.87 170.804C521.667 168.203 523.236 165.907 525.37 164.221C527.503 162.534 530.099 161.537 532.813 161.362C535.527 161.187 538.23 161.842 540.562 163.241C542.895 164.639 544.746 166.715 545.87 169.191Z" fill="#9E616A"/>
<path d="M677.744 141.601C691.97 133.825 697.198 115.988 689.421 101.762C681.645 87.5358 663.808 82.3076 649.582 90.0842C635.356 97.8608 630.128 115.698 637.904 129.924C645.681 144.15 663.518 149.378 677.744 141.601Z" fill="#9E616A"/>
<path d="M628.07 99.2603H674.683V78.9415C664.452 74.8768 654.44 71.42 648.388 78.9415C643 78.9415 637.831 81.0822 634.021 84.8927C630.21 88.7032 628.07 93.8714 628.07 99.2603Z" fill="#CA1D05"/>
<path d="M677.264 75.3555C705.131 75.3555 712.93 110.285 712.93 129.991C712.93 140.98 707.96 144.911 700.151 146.241L697.393 131.531L690.933 146.874C688.739 146.885 686.434 146.842 684.045 146.798L681.855 142.288L676.97 146.717C657.409 146.746 641.598 149.598 641.598 129.991C641.598 110.285 648.439 75.3555 677.264 75.3555Z" fill="#CA1D05"/>
<path d="M865.64 586H317.64C317.375 586 317.12 585.895 316.933 585.707C316.745 585.52 316.64 585.265 316.64 585C316.64 584.735 316.745 584.48 316.933 584.293C317.12 584.105 317.375 584 317.64 584H865.64C865.905 584 866.16 584.105 866.347 584.293C866.535 584.48 866.64 584.735 866.64 585C866.64 585.265 866.535 585.52 866.347 585.707C866.16 585.895 865.905 586 865.64 586Z" fill="#3F3D56"/>
</g>
<defs>
<clipPath id="clip0_728_1132">
<rect width="866.64" height="586" fill="white"/>
</clipPath>
</defs>
</svg>
