<svg width="494" height="512" viewBox="0 0 494 512" fill="none" xmlns="http://www.w3.org/2000/svg">
<g clip-path="url(#clip0_730_1058)">
<path d="M350.072 490.074C331.075 499.729 310.751 505.21 289.958 509.234C284.784 510.236 279.638 511.376 274.239 512.726C255.979 512.999 237.958 512.999 219.469 512.999C215.744 512.02 212.549 510.677 209.223 510.119C188.306 506.612 167.957 501.234 148.654 492.099C151.132 492.245 153.63 492.454 156.029 493.055C167.342 495.887 178.565 499.112 189.939 501.664C209.148 505.974 228.613 509.618 248.321 508.718C280.572 507.245 312.094 501.094 342.806 490.968C345.079 490.218 347.643 490.351 350.072 490.074Z" fill="#370101"/>
<path d="M5.94273 317.992C4.33554 309.6 2.72836 301.209 1.49359 292.408C2.57532 292 3.28461 292.002 4.14386 292.266C4.85924 293.353 5.42467 294.18 5.99255 295.339C5.9985 296.114 6.002 296.557 6.0038 297.416C6.00385 299.221 6.0056 300.609 6.12173 302.253C6.49107 303.006 6.74603 303.504 7.00191 304.335C7.00436 305.112 7.00592 305.556 7.10393 306.362C14.5539 330.96 26.098 352.902 42.8113 372.041C65.6602 398.207 94.411 413.988 128.89 416.538C154.858 418.459 181.149 418.399 206.857 411.898C215.557 409.698 224.859 409.238 233.095 405.982C249.268 399.589 266.396 395.319 281.123 385.453C291.345 378.604 302.558 372.993 311.902 365.134C324.305 354.702 335.938 343.369 346.974 331.256C360.663 316.231 370.993 299.406 380.228 281.76C388.393 266.16 395.975 250.171 399.477 232.652C402.215 218.954 406.186 205.404 407.689 191.58C410.085 169.541 409.346 147.379 406.001 125.374C405.266 120.533 404.62 120.037 399.646 121.989C398.864 121.995 398.418 121.998 398.005 121.578C398.068 111.106 398.096 101.058 398.509 91.0273C400.934 91.3445 402.974 91.6451 405.264 92.1657C406.355 93.9174 407.197 95.4492 408.121 97.3574C409.133 101.821 410.064 105.907 410.873 110.347C411.951 116.309 412.892 121.988 414.396 127.514C419.68 146.926 425.546 166.224 423.982 186.733C423.818 188.879 424.144 191.398 423.137 193.085C418.87 200.23 419.413 208.097 418.949 215.862C418.803 218.309 418.411 220.811 417.67 223.14C415.268 230.692 412.727 238.202 410.101 245.679C405.934 257.541 402.289 269.643 397.223 281.113C393.246 290.118 387.753 298.514 382.388 306.829C376.299 316.268 370.538 326.177 362.988 334.365C342.626 356.452 322.645 379.181 295.204 393.202C287.23 397.277 279.664 402.468 271.296 405.387C256.278 410.627 240.908 414.987 225.468 418.846C214.375 421.619 202.964 423.206 191.631 424.903C181.284 426.452 170.776 426.993 160.477 428.776C144.869 431.478 129.436 430.247 114.488 426.136C84.987 418.023 62.5625 399.053 42.7717 376.622C36.2928 369.279 30.2479 361.553 24.0023 354.001C24 354.001 23.9998 353.996 23.8956 353.708C23.1956 352.615 22.5998 351.809 21.8004 350.727C17.7297 341.634 13.8625 332.817 9.89197 323.671C8.50664 321.558 7.22468 319.775 5.94273 317.992Z" fill="#580000"/>
<path d="M28.7249 381.085C26.0908 375.633 23.4567 370.182 21.0439 364.534C23.1961 366.586 25.1828 368.79 27.0486 371.093C40.2426 387.373 52.5475 404.482 66.833 419.738C81.0164 434.885 97.1626 448.194 114.616 459.698C129.754 469.676 145.736 477.904 164.423 475.702C174.443 474.522 184.082 470.348 193.998 467.963C201.057 466.265 208.272 464.339 215.453 464.184C237.933 463.7 260.43 463.886 282.918 464.112C287.33 464.156 291.845 465.139 296.109 466.387C303.717 468.613 311.115 471.552 318.699 473.871C336.53 479.323 353.035 474.783 368.597 466.148C386.043 456.468 400.755 443.383 414.723 429.108C430.391 413.095 443.049 395.087 453.976 375.791C467.153 352.521 475.758 327.495 479.197 300.952C481.096 286.293 483.54 271.32 482.452 256.734C479.868 222.105 471.509 188.626 454.765 157.864C447.305 144.159 438.673 131.061 430.038 118.042C426.81 113.174 422.063 109.314 417.891 104.74C417.516 103.987 417.258 103.489 416.83 102.765C416.111 102.025 415.563 101.512 414.923 100.693C414.551 99.5806 414.27 98.7746 414.207 97.7631C417.403 95.4304 419.048 97.6793 420.628 99.586C436.71 118.991 451.695 139.104 462.167 162.257C479.454 200.48 489.202 240.154 486.065 282.427C482.844 325.831 468.807 365.629 443.686 400.914C421.579 431.965 395.075 458.796 359.734 475.274C347.064 481.182 333.624 484.097 319.824 485.561C310.905 486.507 301.981 487.544 293.031 488.029C273.277 489.1 253.476 490.954 233.75 490.425C212.849 489.865 192.01 486.938 171.148 485.001C154.324 483.44 138.411 478.648 123.864 470.128C91.0511 450.909 64.5926 424.648 41.4166 394.796C37.6118 389.895 32.9764 385.639 28.7249 381.085Z" fill="#450000"/>
<path d="M28.8434 381.426C32.9764 385.639 37.6118 389.895 41.4166 394.796C64.5926 424.648 91.0511 450.909 123.864 470.128C138.411 478.648 154.324 483.44 171.148 485.001C192.01 486.938 212.849 489.865 233.75 490.425C253.476 490.954 273.277 489.1 293.031 488.029C301.981 487.544 310.905 486.507 319.824 485.561C333.624 484.097 347.064 481.182 359.734 475.274C395.075 458.796 421.579 431.965 443.686 400.914C468.807 365.629 482.844 325.831 486.065 282.427C489.202 240.154 479.454 200.48 462.167 162.257C451.695 139.104 436.71 118.991 420.628 99.586C419.048 97.6793 417.403 95.4304 413.875 97.6842C412.221 97.5422 411.116 97.2736 409.681 96.999C408.915 96.9886 408.477 96.9842 408.04 96.9799C407.197 95.4481 406.355 93.9163 405.225 91.7852C403.72 87.9818 402.64 84.7167 401.252 81.5883C399.329 77.2543 397.175 73.0232 395.119 68.748C402.597 75.0289 410.074 81.3098 417.843 88.1953C419.462 91.0768 420.521 93.5743 422.177 95.5799C424.811 98.7703 428.203 101.367 430.64 104.681C439.389 116.582 448.46 128.309 456.312 140.791C467.146 158.011 475.245 176.67 480.469 196.356C484.429 211.279 487.32 226.484 490.778 241.543C491.209 243.423 492.201 245.175 492.934 246.987C493.205 250.394 493.477 253.802 493.58 257.836C493.554 259.968 493.696 261.473 493.837 262.977C493.855 264.706 493.872 266.434 493.669 268.807C493.563 270.958 493.677 272.464 493.791 273.97C493.514 277.358 493.238 280.747 492.714 284.844C491.921 287.27 491.121 288.951 490.865 290.711C484.675 333.255 470.683 372.716 444.946 407.581C433.343 423.298 420.753 438.033 405.755 450.737C384.373 468.847 361.116 483.492 333.759 490.436C317.489 494.566 300.982 497.889 284.448 500.823C259.165 505.308 233.788 505.78 208.461 500.641C200.632 499.053 192.751 497.71 184.875 496.361C154.899 491.226 126.945 481.175 102.639 462.378C87.8933 450.973 73.1179 439.653 61.6406 424.586C57.488 419.134 51.7621 414.881 46.7541 410.081C41.8007 402.541 36.8122 395.023 31.9197 387.444C30.7676 385.659 29.9393 383.665 28.8434 381.426Z" fill="#410101"/>
<path d="M418.008 104.994C422.063 109.314 426.81 113.174 430.038 118.041C438.673 131.06 447.305 144.158 454.765 157.864C471.509 188.625 479.868 222.105 482.452 256.733C483.54 271.319 481.096 286.292 479.197 300.951C475.758 327.494 467.153 352.521 453.976 375.791C443.049 395.086 430.391 413.094 414.723 429.107C400.755 443.382 386.043 456.467 368.597 466.147C353.035 474.783 336.53 479.322 318.699 473.87C311.115 471.551 303.717 468.613 296.109 466.386C291.845 465.139 287.33 464.155 282.918 464.111C260.43 463.886 237.933 463.699 215.453 464.183C208.272 464.338 201.057 466.264 193.998 467.962C184.082 470.347 174.443 474.521 164.423 475.702C145.736 477.903 129.754 469.676 114.616 459.698C97.1626 448.193 81.0164 434.884 66.833 419.737C52.5475 404.482 40.2426 387.372 27.0486 371.092C25.1828 368.79 23.1961 366.586 20.9419 364.167C18.4556 358.577 16.2926 353.158 14.4398 347.369C15.4976 347 16.2455 347.001 17.1433 347.302C18.196 349.402 19.0986 351.202 20.1054 353.29C20.8041 354.385 21.3987 355.192 22.0954 356.306C22.7977 357.743 23.3979 358.874 24.1029 360.293C24.8032 361.388 25.3987 362.196 26.0992 363.291C26.801 364.386 27.3977 365.193 27.9965 366.25C27.9999 366.667 28.0013 366.834 28.1733 367.227C28.8942 367.969 29.4445 368.484 30.1114 369.254C30.4855 370.007 30.743 370.504 31.1715 371.229C31.8933 371.97 32.4441 372.485 32.9966 373.25C32.9996 373.667 33.0008 373.834 33.1729 374.227C33.8951 374.969 34.4463 375.483 35.132 376.244C35.5116 376.993 35.7568 377.497 36.1729 378.227C36.8945 378.97 37.4453 379.485 37.9974 380.25C37.9997 380.667 38.0006 380.833 38.1725 381.227C38.8946 381.969 39.4458 382.485 40.1133 383.254C40.4863 384.006 40.7431 384.503 41.1461 385.275C42.1939 386.366 43.0955 387.183 44.1224 388.25C44.4985 389 44.7492 389.5 45.1354 390.312C46.2221 391.982 47.0143 393.492 48.1496 394.673C57.9431 404.859 67.1762 415.698 77.7814 424.962C93.6507 438.825 109.206 453.122 128.316 462.98C142.455 470.273 156.096 471.132 169.833 463.852C186.982 454.765 205.195 451.773 224.275 451.965C240.6 452.13 256.944 452.458 273.247 451.86C287.346 451.343 300.614 454.955 314.017 458.163C316.181 458.68 318.18 460.182 320.07 461.495C330.858 468.985 342.428 471.317 355.089 467.139C372.415 461.421 386.687 450.816 399.791 438.603C419.24 420.475 435.934 400.292 449.113 376.869C467.679 343.872 477.09 308.675 478.941 271.207C479.912 251.563 476.23 232.451 471.635 213.426C464.317 183.132 452.113 155.102 434.394 129.455C428.816 121.381 423.464 113.152 418.008 104.994Z" fill="#4A0000"/>
<path d="M39.9484 131.87C52.5133 111.458 68.357 93.9023 87.0578 78.4531C88.0564 79.6572 88.5398 80.7952 88.8152 82.1664C88.0561 83.2658 87.505 84.1321 86.6146 85.08C84.7216 86.0828 82.8282 86.6974 81.6725 87.9779C76.339 93.8876 71.2109 99.9826 65.783 106.183C65.0455 106.909 64.5341 107.463 63.74 108.198C61.9684 110.916 60.4797 113.453 58.9948 115.995C58.9988 116 58.9879 115.993 58.6762 116.129C57.1128 117.305 55.5627 118.135 54.6612 119.42C50.8801 124.811 47.1003 130.221 43.6987 135.852C41.1615 140.053 39.205 144.604 36.7288 149.18C35.6498 150.577 34.8319 151.794 33.9574 153.371C33.597 155.153 33.2931 156.576 32.7634 158.17C32.0287 158.897 31.5199 159.453 30.9131 160.372C29.8736 164.824 28.9323 168.912 27.8086 173.266C26.7486 175.02 25.8709 176.508 24.8212 178.316C23.4263 185.095 22.2036 191.553 20.9816 198.341C20.9818 199.107 20.9811 199.545 20.7416 200.241C19.9983 203.999 19.494 207.5 18.9888 211.332C18.9874 212.105 18.9868 212.546 18.7416 213.27C18.057 214.614 17.3042 215.653 17.2263 216.74C16.6088 225.356 15.1883 234.043 15.7514 242.594C18.298 281.269 38.204 308.467 72.2861 325.922C86.2568 333.077 100.441 339.6 116.169 341.923C127.497 343.596 138.769 345.968 150.156 346.845C167.689 348.194 185.068 345.853 202.04 341.457C211.687 338.959 221.556 336.314 230.385 331.866C251.395 321.283 270.997 308.639 287.486 291.286C305.379 272.456 318.61 250.939 327.083 226.683C335.484 202.631 338.211 177.424 339.448 152.022C341.931 152.019 343.978 152.023 346.109 152.394C346.468 154.506 346.742 156.252 346.948 158.381C344.983 167.707 342.196 176.567 341.358 185.608C339.046 210.534 331.762 233.771 320.112 255.819C306.866 280.89 288.331 301.394 265.496 317.823C244.329 333.052 220.81 343.446 195.088 348.633C163.059 355.092 131.499 352.722 100.28 343.89C84.4249 339.404 70.2752 331.39 56.5533 322.414C36.983 309.612 24.3647 291.954 18.0564 269.558C17.4982 267.576 16.0428 265.847 15.0037 263.601C15.002 262.133 15.0007 261.066 14.996 259.804C14.6633 259.073 14.3342 258.537 13.9989 257.559C13.9521 256.119 13.9662 255.114 13.8626 254.123C10.2857 219.875 15.9128 187.094 29.5566 155.593C32.9878 147.671 36.4827 139.777 39.9484 131.87Z" fill="#830101"/>
<path d="M14.9994 259.999C15.0006 261.066 15.0019 262.133 15.0907 263.988C16.843 270.52 18.1761 276.385 20.2324 281.984C27.5271 301.847 39.9753 317.714 57.8492 329.18C81.2921 344.219 107.225 352.41 134.601 355.933C153.009 358.302 171.41 357.133 189.836 354.256C212.769 350.675 233.945 342.565 253.739 330.992C263.583 325.236 272.38 317.642 281.449 310.618C294.337 300.635 305.356 288.82 313.561 274.708C320.149 263.376 325.798 251.501 332.212 240.062C339.624 226.842 342.161 212.167 344.844 197.658C347.076 185.593 347.684 173.227 349.364 161.089C351.1 163.032 353.34 164.738 353.676 166.76C354.236 170.127 353.912 173.751 353.368 177.172C351.491 188.978 349.11 200.707 347.387 212.533C345.162 227.796 338.787 241.564 332.068 255.088C322.079 275.192 308.831 292.876 292.389 308.474C278.208 321.929 262.741 332.999 245.418 341.849C217.746 355.986 188.329 362.738 157.417 362.936C126.97 363.132 97.8808 356.57 70.784 342.657C54.7683 334.434 39.2794 325.147 30.1277 308.448C28.7501 305.934 26.0769 304.131 23.8761 301.667C19.827 289.184 14.6722 277.272 12.248 264.828C7.67509 241.355 9.40452 217.768 14.8902 194.497C17.178 184.792 19.5451 175.105 21.8761 165.41C27.7333 154.383 33.5904 143.357 39.6979 132.1C36.4827 139.777 32.9878 147.671 29.5566 155.593C15.9128 187.094 10.2857 219.875 13.8625 254.122C13.9661 255.114 13.952 256.118 14.1138 257.813C14.4897 259.006 14.7445 259.502 14.9994 259.999Z" fill="#7D0000"/>
<path d="M21.6188 165.689C19.5451 175.106 17.178 184.792 14.8902 194.497C9.40454 217.768 7.67511 241.356 12.248 264.828C14.6722 277.272 19.827 289.184 23.9837 302.011C29.0881 315.445 36.4035 326.541 47.9436 334.059C57.7823 340.468 67.9627 346.463 78.4348 351.767C101.753 363.577 127.149 367.245 152.831 368.816C161.037 369.318 169.44 368.152 177.633 366.938C189.456 365.186 201.427 363.603 212.877 360.342C242.755 351.833 269.139 336.795 292.587 316.268C317.151 294.765 333.523 267.828 345.63 238.113C352.939 220.174 356.839 201.221 358.265 181.833C358.789 174.701 359.104 167.534 360.108 160.467C360.433 158.174 362.644 156.147 364.11 154.396C364.483 157.27 365.027 159.756 364.948 162.221C364.425 178.528 363.253 194.681 359.482 210.724C355.297 228.535 349.542 245.654 340.951 261.708C328.151 285.627 312.729 307.377 291.183 324.696C272.285 339.887 252.165 352.509 229.363 360.589C219.677 364.021 209.514 366.088 199.647 369.037C185.253 373.339 170.418 373.929 155.636 373.821C129.95 373.635 104.942 369.015 81.0421 359.433C65.0213 353.01 49.7523 344.948 38.3996 331.562C20.2972 310.216 10.7084 285.155 8.01906 257.375C7.81203 255.236 7.33852 253.123 6.98804 250.531C7.32257 239.71 7.65791 229.355 8.12708 218.754C8.50067 217.999 8.74046 217.491 8.97931 216.585C8.98055 215.127 8.98273 214.067 9.12006 212.639C9.73369 206.455 10.2122 200.639 10.6907 194.822C14.2476 185.204 17.8045 175.586 21.6188 165.689Z" fill="#760000"/>
<path d="M46.9142 410.39C51.7621 414.88 57.488 419.134 61.6406 424.585C73.1179 439.653 87.8933 450.973 102.639 462.377C126.945 481.175 154.899 491.225 184.875 496.36C192.751 497.709 200.632 499.052 208.461 500.641C233.788 505.78 259.165 505.307 284.448 500.822C300.982 497.889 317.489 494.566 333.759 490.436C361.116 483.492 384.373 468.846 405.755 450.736C420.753 438.033 433.343 423.297 444.946 407.58C470.683 372.716 484.675 333.254 490.865 290.71C491.121 288.951 491.921 287.27 492.7 285.283C492.227 304.992 488.011 324.365 481.594 343.152C459.51 407.802 418.078 455.897 357.126 487.003C355.054 488.061 352.88 488.919 350.413 489.972C347.643 490.351 345.079 490.218 342.806 490.968C312.094 501.094 280.572 507.245 248.321 508.718C228.613 509.618 209.148 505.974 189.939 501.664C178.565 499.112 167.342 495.887 156.029 493.055C153.63 492.454 151.132 492.245 148.362 491.906C124.558 482.322 103.642 468.586 84.5354 452.001C70.404 439.734 57.74 426.118 46.9142 410.39Z" fill="#3B0101"/>
<path d="M398.124 91.0094C398.096 101.057 398.068 111.104 397.841 121.851C396.424 123.686 395.204 124.822 393.764 125.718C392.176 124.288 390.757 123.153 389.455 121.896C387.009 119.535 384.901 119.578 383.018 122.557C380.382 126.727 377.713 130.876 374.718 135.136C371.594 136.505 368.81 137.773 365.655 139.027C364.541 138.999 363.798 138.984 363.066 138.547C363.387 135.008 363.698 131.892 364.145 128.479C370.105 122.343 374.515 115.897 376.139 107.445C378.209 96.6741 379.565 85.9045 376.264 75.3676C373.564 66.7474 369.532 58.5443 366.09 50.1562C371.951 53.6518 377.812 57.1474 383.963 61.2328C387.094 69.0067 389.753 76.2713 392.868 83.3351C394.097 86.1236 396.342 88.4646 398.124 91.0094Z" fill="#681212"/>
<path d="M137.981 44.6817C158.259 34.1164 179.8 27.146 202.225 23.1637C212.583 21.3242 223.199 20.3898 233.722 20.1624C247.719 19.8599 261.781 20.1109 275.737 21.1567C285.017 21.8521 294.163 24.3519 303.955 26.3607C310.682 29.4947 316.851 32.2545 322.959 35.1415C335.082 40.8711 346.125 48.0246 354.038 59.4472C354.585 62.9104 355.164 66.1004 355.929 70.316C353.022 69.2314 351.518 68.6701 349.802 67.8391C346.393 64.0506 343.197 60.5319 339.869 56.6993C335.806 52.6296 332.323 48.1974 327.861 45.2478C315.652 37.1784 301.973 32.3529 287.765 29.0707C263.67 23.5048 239.231 22.1923 214.805 25.3873C202.372 27.0135 190.257 31.0596 177.603 34.0554C166.478 38.3808 155.748 42.6626 144.625 46.9802C142.182 47.3277 140.133 47.6393 138.074 47.543C138.037 46.3173 138.009 45.4995 137.981 44.6817Z" fill="#833B3B"/>
<path d="M354.071 59.1748C346.125 48.0253 335.082 40.8718 322.959 35.1422C316.851 32.2552 310.682 29.4953 304.363 26.416C316.31 29.956 328.613 33.2779 340.498 37.7204C349.131 40.9475 357.21 45.6569 365.813 49.9312C369.532 58.5451 373.564 66.7482 376.264 75.3684C379.565 85.9053 378.209 96.675 376.139 107.446C374.515 115.897 370.105 122.344 363.716 128.522C359.766 129.213 356.381 129.566 353.095 129.568C353.793 126.8 354.392 124.382 355.261 121.772C363.433 115.67 370.017 109.113 371.081 98.3627C372.045 88.6279 372.836 79.122 367.998 70.1069C366.045 66.4675 363.794 63.2419 358.845 62.8999C357.086 61.5188 355.579 60.3468 354.071 59.1748Z" fill="#782222"/>
<path d="M492.956 246.539C492.201 245.176 491.209 243.424 490.778 241.544C487.32 226.485 484.429 211.28 480.469 196.357C475.245 176.671 467.146 158.012 456.312 140.792C448.46 128.31 439.389 116.583 430.64 104.682C428.203 101.368 424.811 98.7713 422.177 95.581C420.521 93.5753 419.462 91.0779 418.048 88.4629C433.434 102.076 446.018 118.401 456.973 136.012C477.032 168.257 488.68 203.407 492.812 241.099C492.992 242.749 492.928 244.426 492.956 246.539Z" fill="#3B0101"/>
<path d="M7.99323 219C7.6579 229.355 7.32256 239.709 6.85793 250.911C6.633 254.709 5.99015 257.765 6.53706 260.59C8.82905 272.431 11.4775 284.204 13.9435 296.316C14.2588 299.756 14.6261 302.879 14.6199 306.003C13.4996 306 12.7529 305.998 11.8683 305.706C10.8272 304.277 9.92393 303.137 9.01577 301.582C9.00513 299.778 8.99938 298.39 8.82517 296.774C8.11114 296.03 7.56556 295.514 7.01813 294.581C7.00852 292.777 7.00077 291.39 6.87961 289.746C6.51104 288.994 6.25587 288.496 5.99949 287.666C5.99647 286.888 5.99467 286.444 5.87908 285.745C5.51177 284.994 5.25826 284.498 5.00384 283.626C4.99964 282.5 4.99638 281.749 4.95626 280.595C3.33965 275.795 1.75989 271.398 0.180137 267.002C-0.573082 248.107 1.85833 229.558 6.63599 211.129C7.6776 211.692 8.33124 212.348 8.98489 213.005C8.98272 214.066 8.98054 215.126 8.82702 216.713C8.4482 217.827 8.22071 218.413 7.99323 219Z" fill="#690000"/>
<path d="M398.509 91.0272C396.342 88.466 394.097 86.125 392.868 83.3365C389.753 76.2727 387.094 69.0081 384.219 61.4688C387.681 63.502 391.176 65.8904 394.895 68.5139C397.175 73.0242 399.329 77.2553 401.252 81.5892C402.64 84.7177 403.72 87.9827 404.976 91.5663C402.974 91.645 400.934 91.3443 398.509 91.0272Z" fill="#500000"/>
<path d="M137.616 44.7793C138.009 45.4994 138.037 46.3172 137.782 47.7306C132.001 52.8952 126.503 57.4642 120.738 62.1687C119.931 62.5768 119.391 62.8494 118.616 62.9295C116.219 62.537 114.056 62.3371 111.872 61.707C111.825 60.7032 111.799 60.1297 111.774 59.5562C120.266 54.6631 128.758 49.7701 137.616 44.7793Z" fill="#872323"/>
<path d="M111.452 59.6992C111.799 60.1307 111.825 60.7042 111.68 61.9536C105.804 71.1502 96.7564 75.776 89.0231 81.9332C88.5397 80.7952 88.0563 79.6571 87.3567 78.2967C95.1374 71.9967 103.134 65.919 111.452 59.6992Z" fill="#810C0C"/>
<path d="M23.998 360.006C23.3978 358.875 22.7977 357.744 21.9713 356.031C21.1638 354.634 20.5825 353.818 20.0013 353.003C19.0986 351.203 18.1959 349.403 17.0366 346.96C14.726 343.242 12.672 340.166 10.6181 337.09C9.46541 332.98 8.31273 328.87 7.50305 324.378C8.56245 323.996 9.27887 323.998 9.99529 324C13.8624 332.817 17.7296 341.633 21.9249 351.001C22.8353 352.367 23.4175 353.181 23.9997 353.995C23.9997 353.995 24 354 24.1075 354.347C24.8094 356.795 25.4037 358.896 25.7481 360.873C24.9981 360.502 24.498 360.254 23.998 360.006Z" fill="#500000"/>
<path d="M9.12004 212.638C8.33125 212.348 7.67761 211.691 6.78918 210.772C7.79611 205.485 9.03783 200.461 10.4851 195.129C10.2122 200.637 9.73369 206.454 9.12004 212.638Z" fill="#720000"/>
<path d="M0.131928 267.449C1.75992 271.398 3.33968 275.794 4.70827 280.396C3.05336 279.07 1.60959 277.538 0.165818 276.007C0.138444 273.303 0.111069 270.6 0.131928 267.449Z" fill="#640000"/>
<path d="M0.121155 276.436C1.60957 277.539 3.05335 279.07 4.74512 280.8C4.99638 281.749 4.99965 282.5 5.00629 283.821C5.33739 284.928 5.66513 285.464 5.99287 286C5.99468 286.444 5.99648 286.888 5.74649 287.667C5.32604 288.003 5.15736 288.005 4.70767 287.868C3.3163 287.156 2.20595 286.581 1.0956 286.007C0.75589 282.959 0.416183 279.912 0.121155 276.436Z" fill="#600000"/>
<path d="M10.7128 337.465C12.6721 340.166 14.726 343.242 16.8867 346.661C16.2455 347.003 15.4977 347.002 14.3758 347.001C12.937 343.947 11.8722 340.893 10.7128 337.465Z" fill="#4D0000"/>
<path d="M1.06458 286.434C2.20595 286.582 3.3163 287.156 4.70947 288.2C4.99368 289.111 4.99506 289.553 4.8623 290.242C4.48343 290.993 4.23866 291.499 3.9939 292.004C3.28459 292.001 2.5753 291.999 1.51141 291.995C1.11575 290.282 1.07466 288.571 1.06458 286.434Z" fill="#5C0000"/>
<path d="M9.89197 323.67C9.27891 323.998 8.5625 323.996 7.48802 323.992C6.7415 322.248 6.35306 320.506 5.95367 318.377C7.22469 319.774 8.50664 321.557 9.89197 323.67Z" fill="#540000"/>
<path d="M493.87 262.565C493.696 261.472 493.554 259.967 493.602 258.248C493.828 259.407 493.866 260.781 493.87 262.565Z" fill="#3B0101"/>
<path d="M493.833 273.559C493.677 272.463 493.563 270.957 493.643 269.238C493.85 270.4 493.862 271.774 493.833 273.559Z" fill="#3B0101"/>
<path d="M25.9981 360.996C25.4037 358.895 24.8094 356.794 24.1097 354.347C30.2479 361.551 36.2927 369.278 42.7716 376.621C62.5624 399.052 84.9869 418.021 114.488 426.135C129.436 430.246 144.869 431.476 160.477 428.774C170.776 426.992 181.284 426.451 191.631 424.902C202.964 423.205 214.375 421.617 225.468 418.845C240.908 414.985 256.278 410.626 271.296 405.386C279.664 402.466 287.23 397.276 295.204 393.201C322.645 379.18 342.626 356.451 362.988 334.364C370.538 326.176 376.299 316.266 382.388 306.827C387.753 298.512 393.246 290.116 397.223 281.111C402.289 269.641 405.934 257.54 410.1 245.678C412.727 238.201 415.268 230.691 417.67 223.139C418.411 220.809 418.803 218.308 418.949 215.86C419.413 208.095 418.87 200.229 423.137 193.083C424.144 191.397 423.818 188.877 423.982 186.732C425.546 166.222 419.68 146.925 414.396 127.513C412.892 121.987 411.951 116.307 411.173 110.5C413.093 112.039 414.986 113.567 416.028 115.544C424.949 132.466 434.043 149.312 442.397 166.514C446.813 175.605 450.31 185.217 453.4 194.857C456.331 204.003 458.682 213.403 460.4 222.853C462.712 235.576 464.814 248.407 465.765 261.283C466.369 269.464 464.634 277.807 464.095 286.087C462.71 307.367 456.846 327.543 449.05 347.229C447.523 351.086 445.463 354.736 443.569 358.44C439.935 365.545 436.827 373.009 432.431 379.611C426.769 388.114 420.045 395.909 413.806 404.03C412.998 405.082 412.461 406.35 411.615 407.365C406.537 413.45 401.791 419.883 396.16 425.412C392.198 429.305 386.394 431.345 382.516 435.295C377.114 440.801 371.031 444.954 364.014 447.674C356.681 450.517 349.324 451.464 342.073 446.607C336.065 442.582 329.755 438.95 323.325 435.635C319.418 433.621 315.09 431.461 310.85 431.231C295.433 430.395 279.972 430.012 264.532 430.105C252.229 430.179 239.913 430.954 227.637 431.88C219.376 432.503 211.203 434.255 202.944 434.929C186.228 436.294 169.698 439.351 154.557 446.173C142.306 451.693 131.582 450.655 120.847 444.462C110.2 438.32 99.5073 432.025 89.7978 424.548C77.7143 415.242 66.3684 404.922 55.1926 394.515C48.889 388.645 43.6021 381.689 37.779 375.294C36.3442 373.718 34.6035 372.421 32.9248 370.65C31.2317 368.203 29.6173 366.102 28.0014 364C28.0014 364 27.9986 363.996 27.8944 363.708C27.1943 362.614 26.5984 361.808 26.0013 361.001L25.9981 360.996Z" fill="#540000"/>
<path d="M33.0035 370.996C34.6036 372.421 36.3442 373.718 37.779 375.294C43.6022 381.689 48.889 388.646 55.1927 394.515C66.3684 404.922 77.7143 415.242 89.7978 424.548C99.5073 432.025 110.2 438.32 120.847 444.462C131.582 450.655 142.306 451.693 154.557 446.173C169.698 439.351 186.228 436.294 202.944 434.929C211.203 434.255 219.376 432.503 227.637 431.88C239.913 430.954 252.229 430.179 264.532 430.105C279.972 430.012 295.433 430.395 310.85 431.231C315.09 431.461 319.419 433.621 323.325 435.635C329.755 438.95 336.065 442.582 342.073 446.607C349.324 451.464 356.681 450.517 364.014 447.674C371.031 444.954 377.114 440.801 382.516 435.295C386.394 431.345 392.198 429.305 396.16 425.413C401.791 419.883 406.537 413.45 411.615 407.365C412.461 406.35 412.998 405.082 413.806 404.03C420.045 395.909 426.769 388.114 432.431 379.611C436.827 373.009 439.935 365.545 443.569 358.44C445.463 354.736 447.523 351.086 449.05 347.229C456.846 327.543 462.71 307.367 464.095 286.087C464.634 277.807 466.369 269.464 465.765 261.283C464.814 248.407 462.712 235.576 460.4 222.853C458.682 213.403 456.331 204.003 453.4 194.857C450.31 185.217 446.813 175.605 442.397 166.514C434.043 149.312 424.949 132.466 416.028 115.544C414.986 113.567 413.093 112.039 411.294 110.147C410.064 105.906 409.133 101.819 408.121 97.3559C408.477 96.9838 408.915 96.9882 409.808 97.3227C417.752 109.467 425.684 121.029 432.616 133.162C440.782 147.455 449.079 161.817 455.519 176.917C464.752 198.569 470.519 221.416 473.346 244.852C474.359 253.257 475.143 261.826 474.682 270.246C473.432 293.083 469.466 315.365 462.064 337.23C454.104 360.746 442.422 382.178 427.866 401.819C417.94 415.212 405.645 426.987 393.553 438.594C383.948 447.812 372.515 454.754 360.119 460.059C351.092 463.922 342.971 462.119 334.755 457.99C327.475 454.331 320.384 449.724 312.643 447.694C302.458 445.023 291.737 443.405 281.213 443.219C259.077 442.828 236.92 443.696 214.771 443.99C196.753 444.228 179.387 446.857 163.717 456.676C151.778 464.157 139.329 464.382 127.344 457.183C116.833 450.87 106.427 444.209 96.7719 436.68C81.6924 424.921 66.8228 412.826 54.3468 398.114C51.7092 395.004 48.1399 392.684 45 390.001C44.7492 389.501 44.4985 389.001 43.9766 387.976C42.8037 386.635 41.9018 385.818 40.9999 385.001C40.7431 384.503 40.4863 384.006 39.9424 383.028C39.1041 382.031 38.5528 381.516 38.0015 381C38.0006 380.834 37.9997 380.667 37.8267 380.023C37.1038 379.031 36.553 378.516 36.0021 378.001C35.7568 377.497 35.5116 376.993 34.9609 376.017C34.1044 375.03 33.5532 374.515 33.002 374.001C33.0008 373.834 32.9996 373.667 32.9973 372.918C32.9965 371.891 32.9967 371.447 32.9985 371.001C33 370.999 33.0035 370.996 33.0035 370.996Z" fill="#500000"/>
<path d="M399.98 121.984C404.62 120.036 405.266 120.531 406.001 125.373C409.346 147.377 410.085 169.539 407.689 191.578C406.186 205.403 402.215 218.952 399.477 232.651C395.975 250.169 388.393 266.158 380.228 281.758C370.993 299.404 360.663 316.229 346.974 331.255C335.938 343.368 324.305 354.701 311.902 365.132C302.558 372.991 291.345 378.603 281.123 385.451C266.396 395.318 249.268 399.587 233.095 405.981C224.859 409.237 215.557 409.696 206.857 411.896C181.149 418.397 154.858 418.457 128.89 416.536C94.4109 413.986 65.6602 398.205 42.8113 372.04C26.0979 352.9 14.5539 330.958 7.36206 306.581C9.92421 311.892 12.4108 317.31 14.7103 322.806C25.0199 347.448 40.307 368.396 61.7362 384.416C78.892 397.241 98.4953 403.682 119.805 406.632C148.675 410.63 177.237 409.787 205.742 404.746C227.368 400.922 247.498 392.733 267.235 383.139C286.125 373.955 303.343 362.453 318.777 348.467C338.714 330.401 356.432 310.303 368.604 285.999C374.778 273.67 380.757 261.193 385.901 248.411C391.941 233.401 396.122 217.785 397.39 201.525C398.539 186.801 400.23 172.1 400.78 157.355C401.218 145.591 400.298 133.776 399.98 121.984Z" fill="#5C0000"/>
<path d="M399.646 121.988C400.298 133.778 401.218 145.593 400.78 157.357C400.23 172.101 398.539 186.803 397.39 201.526C396.122 217.786 391.941 233.403 385.901 248.412C380.757 261.194 374.778 273.671 368.604 286C356.432 310.305 338.714 330.402 318.777 348.468C303.343 362.454 286.125 373.957 267.235 383.14C247.498 392.735 227.368 400.923 205.742 404.747C177.237 409.788 148.675 410.631 119.805 406.634C98.4953 403.684 78.892 397.243 61.7362 384.417C40.307 368.397 25.0199 347.449 14.7103 322.807C12.4109 317.311 9.92424 311.893 7.26564 306.219C7.00592 305.555 7.00436 305.112 7.25407 304.335C7.67344 304.001 7.84157 304.001 8.26759 304.221C9.64151 306.64 10.9725 308.757 11.8411 311.05C23.6707 342.276 41.4169 368.569 71.7702 384.857C86.3688 392.691 101.854 397.333 118.079 399.864C142.746 403.712 167.37 404.077 192.157 400.228C220.274 395.862 246.826 386.99 271.785 373.638C286.299 365.874 300.075 356.688 311.822 344.932C322.843 333.904 334.95 323.631 344.218 311.257C358.549 292.124 371.298 271.618 378.598 248.557C383.457 233.208 388.088 217.588 390.586 201.738C394.317 178.055 394.613 154 393.976 129.596C393.98 128.115 393.983 127.036 393.985 125.958C395.204 124.823 396.424 123.687 397.807 122.277C398.418 121.998 398.864 121.995 399.646 121.988Z" fill="#600000"/>
<path d="M8.99363 297.002C8.99938 298.39 9.00514 299.778 8.7611 301.583C8.34168 302.001 8.17207 302.001 7.66987 302.001C6.89397 301.999 6.45065 301.997 6.00732 301.996C6.00558 300.608 6.00382 299.22 6.37725 297.415C7.49951 297 8.24656 297.001 8.99363 297.002Z" fill="#600000"/>
<path d="M4.14386 292.265C4.23868 291.498 4.48344 290.993 5.19521 290.243C6.1058 289.999 6.54942 290.001 6.99304 290.002C7.00079 291.39 7.00855 292.777 6.76057 294.583C6.33325 295.003 6.16168 295.004 5.9901 295.006C5.42467 294.179 4.85924 293.352 4.14386 292.265Z" fill="#600000"/>
<path d="M5.99255 295.338C6.16168 295.005 6.33325 295.003 6.76242 295C7.56558 295.514 8.11116 296.031 8.8252 296.775C8.24658 297.002 7.49953 297.001 6.37898 296.999C6.002 296.556 5.9985 296.113 5.99255 295.338Z" fill="#640000"/>
<path d="M23.8956 353.707C23.4175 353.181 22.8353 352.367 22.1285 351.277C22.5998 351.808 23.1956 352.614 23.8956 353.707Z" fill="#540000"/>
<path d="M6.1217 302.251C6.45065 301.997 6.89398 301.998 7.67081 302.334C8.00609 303.111 8.00787 303.555 8.00967 303.999C7.84155 304 7.67343 304 7.25314 304.001C6.74602 303.503 6.49106 303.005 6.1217 302.251Z" fill="#5C0000"/>
<path d="M45.1354 390.313C48.14 392.685 51.7092 395.005 54.3468 398.115C66.8228 412.826 81.6924 424.922 96.7719 436.681C106.427 444.21 116.833 450.871 127.344 457.184C139.329 464.383 151.778 464.158 163.717 456.676C179.387 446.858 196.753 444.229 214.771 443.991C236.92 443.697 259.077 442.829 281.213 443.22C291.737 443.406 302.458 445.024 312.643 447.695C320.384 449.725 327.475 454.332 334.755 457.991C342.971 462.12 351.092 463.923 360.119 460.06C372.515 454.755 383.948 447.813 393.553 438.594C405.645 426.988 417.94 415.213 427.866 401.82C442.422 382.179 454.104 360.746 462.064 337.231C469.466 315.365 473.432 293.084 474.682 270.247C475.143 261.827 474.359 253.258 473.346 244.853C470.519 221.417 464.752 198.57 455.519 176.918C449.079 161.818 440.782 147.455 432.616 133.162C425.684 121.03 417.752 109.468 410.137 97.3296C411.116 97.2741 412.221 97.5426 413.659 97.8901C414.27 98.775 414.551 99.5811 415.092 100.92C415.901 101.966 416.451 102.478 417 102.991C417.258 103.489 417.516 103.987 417.891 104.74C423.464 113.153 428.816 121.383 434.394 129.456C452.113 155.103 464.317 183.133 471.635 213.427C476.23 232.452 479.912 251.564 478.941 271.208C477.09 308.676 467.679 343.874 449.113 376.871C435.934 400.293 419.24 420.476 399.791 438.604C386.687 450.817 372.415 461.422 355.089 467.14C342.428 471.318 330.858 468.986 320.07 461.496C318.18 460.184 316.181 458.682 314.017 458.164C300.614 454.957 287.346 451.344 273.247 451.861C256.944 452.459 240.6 452.131 224.275 451.966C205.195 451.774 186.982 454.766 169.833 463.853C156.096 471.133 142.455 470.274 128.316 462.981C109.206 453.123 93.6507 438.826 77.7814 424.963C67.1762 415.699 57.9431 404.86 48.1496 394.674C47.0143 393.493 46.2221 391.983 45.1354 390.313Z" fill="#4D0000"/>
<path d="M416.83 102.766C416.451 102.479 415.901 101.966 415.183 101.227C415.563 101.513 416.111 102.026 416.83 102.766Z" fill="#4A0000"/>
<path d="M28.0029 364.002C29.6173 366.103 31.2318 368.205 32.9249 370.652C33.0036 370.997 33 371.001 32.6658 371.002C31.8879 371.004 31.4442 371.004 31.0005 371.003C30.743 370.506 30.4855 370.008 29.9411 369.029C29.1036 368.032 28.5532 367.517 28.0027 367.002C28.0013 366.835 27.9999 366.668 27.998 365.918C27.9993 364.891 28.0011 364.446 28.0029 364.002Z" fill="#500000"/>
<path d="M41.1461 385.275C41.9018 385.818 42.8037 386.635 43.8513 387.727C43.0955 387.184 42.1939 386.367 41.1461 385.275Z" fill="#4D0000"/>
<path d="M28.0014 364.001C28.0011 364.446 27.9993 364.89 27.996 365.667C27.3977 365.194 26.801 364.387 26.1021 363.29C25.9998 363 26.0018 362.999 26.2513 363.124C27 363.498 27.4993 363.748 27.9986 363.997L28.0014 364.001Z" fill="#4D0000"/>
<path d="M24.1028 360.293C24.498 360.253 24.9981 360.501 25.7482 360.872C25.9982 360.996 26 361 26.0008 361.334C26.0017 362.111 26.0018 362.555 26.0018 362.998C26.0018 362.998 25.9998 363 25.997 363.001C25.3987 362.196 24.8032 361.388 24.1028 360.293Z" fill="#4D0000"/>
<path d="M20.1054 353.291C20.5826 353.819 21.1638 354.634 21.8692 355.725C21.3987 355.194 20.8041 354.386 20.1054 353.291Z" fill="#4D0000"/>
<path d="M28.1733 367.229C28.5532 367.517 29.1036 368.032 29.8244 368.774C29.4445 368.486 28.8942 367.971 28.1733 367.229Z" fill="#4D0000"/>
<path d="M31.1715 371.23C31.4442 371.003 31.8878 371.004 32.6642 371.004C32.9967 371.448 32.9965 371.892 32.9956 372.669C32.4441 372.487 31.8933 371.972 31.1715 371.23Z" fill="#4D0000"/>
<path d="M33.1729 374.229C33.5532 374.516 34.1044 375.031 34.8266 375.772C34.4463 375.484 33.895 374.97 33.1729 374.229Z" fill="#4D0000"/>
<path d="M36.1729 378.229C36.553 378.517 37.1039 379.032 37.8254 379.774C37.4453 379.486 36.8945 378.971 36.1729 378.229Z" fill="#4D0000"/>
<path d="M38.1725 381.229C38.5528 381.517 39.1041 382.032 39.8262 382.774C39.4458 382.486 38.8946 381.971 38.1725 381.229Z" fill="#4D0000"/>
<path d="M339.011 152.027C338.211 177.423 335.484 202.631 327.083 226.682C318.61 250.939 305.379 272.455 287.486 291.286C270.997 308.639 251.395 321.283 230.385 331.866C221.556 336.313 211.687 338.959 202.04 341.457C185.068 345.853 167.689 348.194 150.156 346.844C138.769 345.968 127.497 343.595 116.169 341.922C100.441 339.599 86.2568 333.076 72.2861 325.921C38.204 308.467 18.2979 281.268 15.7513 242.594C15.1883 234.043 16.6088 225.356 17.2262 216.74C17.3042 215.652 18.057 214.613 18.7446 213.74C18.999 220.759 18.7651 227.602 19.0581 234.422C19.9111 254.273 26.0028 272.249 38.3835 288.025C49.3804 302.037 64.2153 310.757 79.4663 319.159C96.8227 328.72 115.579 333.687 134.937 336.136C145.912 337.524 157.162 336.601 168.274 337.065C182.371 337.653 195.78 333.837 208.928 329.955C235.811 322.019 258.557 306.481 278.772 287.488C292.322 274.758 302.357 259.105 310.587 242.477C314.559 234.454 318.376 226.134 320.604 217.519C323.845 204.985 325.785 192.096 327.898 179.296C329.279 170.932 329.983 162.457 331.228 153.842C332.309 152.783 333.154 151.916 334.369 151.059C336.163 151.389 337.587 151.708 339.011 152.027Z" fill="#8A0000"/>
<path d="M64.0227 108.015C64.5341 107.461 65.0455 106.907 66.0541 106.204C68.195 104.832 69.9523 103.734 71.4618 102.363C76.673 97.6306 81.7977 92.8028 86.9735 88.3457C87.0126 89.1265 87.0337 89.5728 86.9608 90.3505C86.5576 91.7897 86.2483 92.8973 85.6311 94.1405C80.2135 99.5158 75.1037 104.756 69.7203 110.142C68.6326 111.193 67.8185 112.097 67.0015 113.249C66.9987 113.497 66.9934 113.994 66.687 114.135C64.8602 115.773 63.1182 117.104 61.8527 118.793C44.1256 142.442 34.0474 169.071 31.3424 198.454C29.8359 214.818 31.1423 230.814 39.6742 245.407C59.8907 279.986 91.5864 298.64 129.446 306.466C156.971 312.156 184.454 309.994 211.112 298.488C234.503 288.392 254.393 274.246 269.781 254.251C288.439 230.004 298.043 201.988 300.366 171.606C300.652 167.867 297.554 163.869 296.025 159.613C296.032 158.48 296.039 157.724 296.39 156.823C301.159 155.785 305.584 154.891 310.068 154.384C310.422 156.847 310.718 158.922 310.948 161.394C310.316 164.733 309.435 167.656 309.234 170.624C307.824 191.402 303.213 211.348 294.49 230.329C284.268 252.568 269.453 271.345 250.052 285.962C239.529 293.89 227.25 299.485 215.771 306.146C204.249 312.833 191.221 314.805 178.492 316.665C154.244 320.208 130.54 317.177 107.188 309.124C82.8074 300.718 62.1243 287.508 45.2833 267.989C33.0843 253.85 27.7102 237.447 26.9163 219.028C26.2837 204.351 28.9291 190.177 32.0564 175.601C34.2686 161.038 40.352 148.386 47.2849 136.083C51.0891 129.331 55.0807 122.686 58.9879 115.992C58.9879 115.992 58.9988 115.998 59.2882 115.838C61.0593 113.124 62.541 110.569 64.0227 108.015Z" fill="#9A0000"/>
<path d="M58.6762 116.129C55.0807 122.686 51.0891 129.332 47.2848 136.084C40.352 148.387 34.2686 161.039 31.8066 175.842C30.8558 177.63 29.9475 178.708 29.616 179.942C24.0008 200.84 22.5921 221.882 27.5968 243.13C32.5876 264.319 46.5063 278.962 63.0639 291.707C80.6406 305.236 100.425 314.265 121.963 318.882C134.414 321.551 147.412 324.224 159.937 323.411C180.588 322.07 201.014 318.733 220.431 309.766C247.013 297.491 268.815 280.014 285.417 256.167C296.49 240.262 305.437 223.173 308.683 203.709C310.733 191.421 312.727 179.118 314.294 166.765C314.516 165.01 312.171 162.929 311.014 160.999C310.718 158.923 310.422 156.847 310.223 154.086C313.265 150.253 316.21 147.105 319.488 144.071C324.547 146.472 329.273 148.76 333.999 151.048C333.154 151.916 332.309 152.784 330.929 153.997C325.777 156.586 323.603 160.463 322.822 165.379C321.282 175.067 319.614 184.736 318.069 194.423C315.454 210.817 310.431 226.438 302.757 241.143C294.224 257.493 283.412 272.07 269.881 284.797C252.876 300.791 233.7 313.304 211.717 320.689C190.728 327.74 169.18 331.612 146.543 329.417C128.483 327.665 111.248 324.201 94.507 317.2C80.109 311.178 66.8675 303.663 54.7262 293.764C37.9173 280.061 26.3381 263.395 23.2047 241.748C21.95 233.08 22.4043 224.169 21.9727 215.374C21.8026 211.907 21.3378 208.455 21.0077 204.664C21.0085 203.889 21.009 203.446 21.2491 202.747C22.3229 199.327 23.1569 196.163 23.9916 192.666C23.9939 191.887 23.9954 191.443 24.0399 190.8C24.056 190.069 24.0291 189.535 24.0034 188.668C24.0057 187.891 24.0067 187.448 24.1901 186.838C24.5826 185.782 24.7927 184.892 25.0044 183.669C25.0073 182.892 25.0087 182.448 25.2644 181.786C26.3428 178.711 27.1668 175.856 27.9908 173C28.9322 168.912 29.8736 164.824 31.1389 160.2C31.9716 159.109 32.4804 158.554 32.9892 157.998C33.2931 156.575 33.5969 155.153 34.2371 153.207C35.3788 151.456 36.1844 150.227 36.9899 148.999C39.2049 144.603 41.1614 140.052 43.6986 135.852C47.1003 130.22 50.88 124.81 54.6611 119.42C55.5627 118.135 57.1128 117.304 58.6762 116.129Z" fill="#930000"/>
<path d="M21.0073 204.996C21.3379 208.455 21.8026 211.907 21.9728 215.374C22.4044 224.169 21.95 233.079 23.2048 241.748C26.3381 263.395 37.9173 280.061 54.7262 293.764C66.8676 303.662 80.109 311.178 94.5071 317.199C111.248 324.201 128.483 327.665 146.543 329.417C169.18 331.612 190.728 327.74 211.717 320.689C233.7 313.304 252.876 300.791 269.881 284.797C283.412 272.07 294.224 257.493 302.757 241.143C310.432 226.438 315.454 210.816 318.069 194.423C319.614 184.736 321.282 175.067 322.822 165.379C323.603 160.463 325.777 156.586 330.692 154.188C329.983 162.457 329.279 170.932 327.898 179.296C325.785 192.096 323.845 204.985 320.604 217.519C318.376 226.134 314.559 234.454 310.587 242.477C302.357 259.105 292.322 274.758 278.772 287.488C258.557 306.481 235.811 322.019 208.928 329.955C195.78 333.837 182.371 337.653 168.274 337.065C157.162 336.601 145.912 337.524 134.937 336.136C115.579 333.687 96.8227 328.72 79.4663 319.159C64.2153 310.757 49.3804 302.037 38.3835 288.025C26.0028 272.249 19.9111 254.273 19.0581 234.422C18.7651 227.602 18.999 220.759 18.9891 213.457C18.9867 212.546 18.9874 212.104 19.1205 211.005C19.8378 208.563 20.4226 206.78 21.0073 204.996Z" fill="#8E0000"/>
<path d="M363.055 138.971C363.798 138.986 364.541 139.001 365.586 139.419C365.256 144.548 364.624 149.273 363.992 153.999C362.644 156.148 360.433 158.174 360.108 160.468C359.104 167.535 358.789 174.701 358.265 181.833C356.839 201.222 352.939 220.175 345.63 238.114C333.523 267.829 317.151 294.765 292.587 316.268C269.139 336.795 242.755 351.833 212.877 360.342C201.427 363.603 189.456 365.186 177.633 366.938C169.44 368.152 161.037 369.318 152.831 368.816C127.149 367.246 101.753 363.577 78.4348 351.767C67.9627 346.463 57.7823 340.468 47.9436 334.059C36.4035 326.542 29.0881 315.445 24.1106 302.343C26.0769 304.131 28.7501 305.935 30.1277 308.449C39.2795 325.147 54.7683 334.434 70.784 342.658C97.8808 356.571 126.97 363.133 157.417 362.937C188.329 362.738 217.746 355.987 245.418 341.85C262.741 333 278.208 321.93 292.389 308.475C308.831 292.877 322.079 275.193 332.068 255.088C338.787 241.565 345.162 227.797 347.387 212.534C349.11 200.708 351.492 188.979 353.368 177.173C353.912 173.752 354.236 170.128 353.676 166.761C353.34 164.739 351.1 163.033 349.258 160.802C348.205 159.612 347.61 158.805 347.016 157.997C346.742 156.252 346.468 154.507 346.309 152.127C351.968 147.318 357.512 143.144 363.055 138.971Z" fill="#790000"/>
<path d="M346.948 158.381C347.61 158.805 348.205 159.612 348.906 160.707C347.684 173.227 347.076 185.593 344.844 197.659C342.161 212.168 339.624 226.843 332.212 240.063C325.798 251.501 320.149 263.376 313.561 274.709C305.356 288.821 294.337 300.635 281.449 310.618C272.38 317.642 263.583 325.237 253.739 330.993C233.945 342.566 212.769 350.676 189.836 354.256C171.41 357.133 153.009 358.303 134.601 355.934C107.225 352.411 81.2921 344.22 57.8492 329.181C39.9753 317.715 27.5271 301.848 20.2324 281.985C18.1761 276.385 16.843 270.52 15.0912 264.389C16.0428 265.847 17.4982 267.576 18.0564 269.558C24.3646 291.954 36.9829 309.613 56.5533 322.414C70.2751 331.39 84.4249 339.405 100.28 343.89C131.499 352.722 163.059 355.092 195.088 348.633C220.81 343.446 244.329 333.053 265.496 317.823C288.331 301.394 306.865 280.89 320.112 255.819C331.762 233.772 339.046 210.534 341.358 185.608C342.196 176.567 344.983 167.707 346.948 158.381Z" fill="#810000"/>
<path d="M363.066 138.548C357.512 143.144 351.968 147.317 346.224 151.758C343.978 152.022 341.931 152.019 339.448 152.021C337.587 151.708 336.163 151.389 334.369 151.059C329.273 148.76 324.547 146.472 319.609 143.771C323.33 137.474 328.935 134.876 335.888 133.954C341.667 133.187 347.299 131.306 352.996 129.918C356.381 129.566 359.766 129.213 363.58 128.818C363.698 131.893 363.387 135.009 363.066 138.548Z" fill="#810C0C"/>
<path d="M87.0547 90.0196C87.0337 89.5734 87.0126 89.1271 86.9822 87.9691C86.9666 86.5041 86.9602 85.7509 86.9539 84.9977C87.505 84.1314 88.0561 83.2651 88.8151 82.1656C96.7564 75.7753 105.804 71.1495 111.701 62.3832C114.056 62.3374 116.219 62.5373 118.435 63.182C114.61 67.8223 110.732 72.018 106.551 76.324C103.731 78.2345 101.221 80.0457 98.694 81.8321C94.8206 84.5702 90.9351 87.2913 87.0547 90.0196Z" fill="#991313"/>
<path d="M86.6146 85.0801C86.9602 85.7517 86.9666 86.505 86.9642 87.6354C81.7977 92.8042 76.6729 97.632 71.4618 102.365C69.9523 103.736 68.195 104.834 66.2802 106.034C71.2109 99.9828 76.339 93.8877 81.6725 87.978C82.8281 86.6976 84.7216 86.0829 86.6146 85.0801Z" fill="#930000"/>
<path d="M23.997 190.997C23.9955 191.442 23.994 191.887 23.7589 192.887C22.6771 194.965 21.829 196.488 20.9808 198.011C22.2036 191.552 23.4263 185.093 24.8832 178.594C25.0816 179.703 25.0459 180.853 25.0101 182.003C25.0087 182.447 25.0074 182.891 24.8782 183.959C24.5029 185.389 24.2553 186.196 24.0078 187.003C24.0068 187.447 24.0057 187.891 23.9606 188.865C23.9433 189.93 23.9702 190.463 23.997 190.997Z" fill="#8A0000"/>
<path d="M63.7399 108.197C62.541 110.57 61.0593 113.124 59.2842 115.834C60.4796 113.452 61.9684 110.915 63.7399 108.197Z" fill="#930000"/>
<path d="M21.0078 204.663C20.4226 206.779 19.8378 208.562 19.1213 210.673C19.494 207.499 19.9983 203.998 20.7463 200.617C20.9964 201.493 21.0029 202.247 21.0095 203.002C21.009 203.445 21.0086 203.888 21.0078 204.663Z" fill="#8A0000"/>
<path d="M21.2492 202.746C21.0029 202.248 20.9964 201.493 20.9852 200.361C20.9811 199.545 20.9817 199.106 20.9816 198.34C21.8289 196.488 22.6771 194.966 23.7581 193.221C23.1569 196.162 22.3229 199.326 21.2492 202.746Z" fill="#8E0000"/>
<path d="M25.2645 181.785C25.0458 180.854 25.0816 179.704 25.0553 178.274C25.8709 176.507 26.7485 175.019 27.8085 173.266C27.1669 175.855 26.3429 178.711 25.2645 181.785Z" fill="#8E0000"/>
<path d="M36.7288 149.18C36.1844 150.228 35.3789 151.456 34.2936 152.848C34.8318 151.794 35.6497 150.577 36.7288 149.18Z" fill="#8A0000"/>
<path d="M32.7634 158.17C32.4805 158.554 31.9717 159.109 31.2371 159.836C31.5199 159.452 32.0287 158.897 32.7634 158.17Z" fill="#8A0000"/>
<path d="M14.9959 259.803C14.7445 259.501 14.4897 259.005 14.1199 258.254C14.3341 258.536 14.6633 259.072 14.9959 259.803Z" fill="#810000"/>
<path d="M364.11 154.396C364.624 149.272 365.256 144.546 365.957 139.431C368.81 137.773 371.594 136.505 374.851 135.475C377.402 141.065 378.789 146.446 375.678 152.147C373.979 154.424 371.733 156.415 371.368 158.707C370.219 165.927 369.314 173.248 369.142 180.55C368.566 204.938 362.158 228.034 353.077 250.317C338.11 287.043 313.197 316.424 281.711 339.875C254.694 359.998 223.646 372.035 190.419 376.916C152.449 382.495 114.953 379.524 78.9285 365.08C56.4816 356.08 37.888 342.344 26.2529 320.549C21.9472 312.484 18.0687 304.19 13.9954 296.001C11.4775 284.203 8.82902 272.431 6.53703 260.59C5.99013 257.764 6.63298 254.709 6.8587 251.378C7.33848 253.122 7.812 255.235 8.01903 257.374C10.7084 285.155 20.2971 310.215 38.3996 331.561C49.7523 344.947 65.0213 353.009 81.0421 359.432C104.942 369.014 129.95 373.635 155.636 373.821C170.418 373.928 185.252 373.338 199.647 369.036C209.514 366.087 219.677 364.02 229.363 360.588C252.165 352.508 272.285 339.887 291.183 324.695C312.729 307.376 328.151 285.626 340.951 261.707C349.542 245.653 355.297 228.534 359.482 210.723C363.253 194.68 364.425 178.527 364.948 162.22C365.027 159.755 364.483 157.27 364.11 154.396Z" fill="#720000"/>
<path d="M8.12708 218.753C8.22072 218.413 8.44821 217.827 8.82797 217.111C8.74046 217.49 8.50067 217.998 8.12708 218.753Z" fill="#720000"/>
<path d="M375.993 151.999C378.789 146.446 377.402 141.064 375.191 135.373C377.713 130.876 380.382 126.727 383.018 122.557C384.901 119.577 387.009 119.534 389.455 121.896C390.757 123.153 392.176 124.288 393.764 125.718C393.983 127.035 393.98 128.113 393.72 129.81C391.97 133.619 390.477 136.808 388.667 140.143C386.921 142.715 384.469 145.048 384.234 147.586C382.883 162.145 382.23 176.766 381.016 191.34C378.833 217.552 371.248 242.436 359.812 265.877C345.592 295.027 326.13 320.342 300.735 341.006C279.024 358.671 255.16 372.537 228.63 380.912C205.625 388.175 181.899 393.206 157.414 391.972C147.63 391.479 137.857 390.722 128.085 390.008C103.56 388.218 80.478 381.129 59.7402 368.207C39.1837 355.398 25.9516 335.971 16.6435 313.85C16.0329 312.399 16.1945 310.623 16.2336 309.237C18.1315 311.952 20.075 314.286 21.4048 316.928C27.0639 328.173 34.1126 338.402 42.915 347.415C60.0634 364.974 82.2974 372.87 105.176 378.412C135.413 385.736 166.183 386.481 196.911 380.828C240.716 372.771 278.514 352.937 310.39 321.948C316.444 316.062 321.419 309.074 326.956 302.65C340.915 286.456 351.39 268.086 359.224 248.367C371.492 217.491 375.484 185.008 375.993 151.999Z" fill="#690000"/>
<path d="M354.038 59.4473C355.579 60.3462 357.086 61.5182 358.928 63.2346C360.656 66.9656 362.167 70.1072 363.426 73.3467C367.593 84.0725 364.299 93.9262 354.857 98.8921C348.697 102.131 342.21 104.816 336.313 108.464C330.934 111.791 326.152 116.081 320.683 119.963C316.828 120.643 313.397 121.307 309.618 121.824C305.408 120.788 301.547 119.899 297.344 118.932C304.053 111.609 304.053 111.609 300.278 106.729C307.248 101.037 315.255 99.3924 323.603 98.1226C339.297 95.7356 349.939 83.3116 350.013 68.1089C351.518 68.6702 353.022 69.2314 355.929 70.3161C355.164 66.1005 354.585 62.9104 354.038 59.4473Z" fill="#993030"/>
<path d="M349.802 67.8399C349.939 83.3124 339.297 95.7364 323.603 98.1234C315.255 99.3932 307.248 101.038 299.808 106.742C293.713 107.338 288.321 107.683 282.883 107.629C282.56 104.796 282.282 102.363 282.343 99.7979C287.044 98.0228 291.407 96.3808 296.695 94.3908C294.678 92.8055 293.963 92.139 293.152 91.6238C287.927 88.3028 287.698 86.5063 293.533 84.2924C300.776 81.5449 308.517 80.1117 316.317 78.298C318.193 79.3724 319.746 80.3586 321.4 81.1287C327.124 83.7935 331.565 82.8355 336.806 77.896C340.784 74.1469 339.852 69.8324 338.261 65.4171C337.14 62.3085 336.101 59.1706 335.383 56.1035C337.16 56.4455 338.581 56.7298 340.001 57.0141C343.197 60.5327 346.393 64.0514 349.802 67.8399Z" fill="#A23B3B"/>
<path d="M339.869 56.6997C338.581 56.7294 337.16 56.4451 335.128 55.8803C310.185 35.2573 281.101 28.5645 250.481 27.1245C227.929 26.064 205.576 28.0997 183.919 35.2224C182.062 35.8329 179.981 35.7602 178.001 35.6727C177.997 34.8978 177.997 34.455 177.998 34.0122C190.256 31.06 202.372 27.0139 214.805 25.3877C239.231 22.1927 263.67 23.5053 287.765 29.0711C301.973 32.3533 315.652 37.1788 327.861 45.2482C332.323 48.1979 335.806 52.63 339.869 56.6997Z" fill="#8C4242"/>
<path d="M177.603 34.0566C177.997 34.4558 177.997 34.8986 177.779 35.9278C174.807 37.9475 171.905 39.1588 169.341 40.8755C166.704 42.6411 164.397 44.8997 161.628 47.0831C153.2 52.1256 145.059 56.979 137.002 61.967C135.193 63.0865 133.676 64.6764 131.713 66.1861C128.595 67.9057 125.788 69.4888 122.733 70.9478C122.375 68.5761 122.266 66.3286 122.471 63.9494C130.197 58.1937 137.607 52.5697 145.018 46.9457C155.748 42.6639 166.478 38.382 177.603 34.0566Z" fill="#A23B3B"/>
<path d="M144.625 46.9805C137.607 52.5687 130.197 58.1927 122.306 63.7014C121.552 63.0686 121.278 62.5511 121.005 62.0336C126.503 57.4645 132.001 52.8955 137.791 48.1388C140.133 47.6395 142.182 47.3279 144.625 46.9805Z" fill="#993030"/>
<path d="M309.966 121.972C313.397 121.308 316.828 120.645 321.003 120.133C323.321 120.786 324.885 121.317 326.468 121.784C335.957 124.583 345.48 122.409 354.991 121.965C354.392 124.383 353.793 126.801 353.095 129.569C347.299 131.307 341.667 133.188 335.888 133.955C328.935 134.877 323.33 137.475 319.275 143.659C316.21 147.106 313.265 150.254 310.165 153.7C305.584 154.893 301.159 155.787 296.061 156.734C294.298 156.486 293.207 156.185 292.2 155.522C292.859 152.595 293.43 150.029 294.011 147.467C294.807 143.961 293.516 142.172 289.824 141.981C285.892 141.779 281.973 141.338 278.046 140.62C278.039 139.471 278.036 138.705 278.238 137.681C282.621 131.306 288.826 130.3 295.554 130.664C304.809 131.165 306.295 130.281 309.966 121.972Z" fill="#991313"/>
<path d="M355.261 121.773C345.48 122.408 335.957 124.582 326.468 121.783C324.885 121.316 323.321 120.786 321.428 120.116C326.152 116.082 330.934 111.792 336.313 108.465C342.21 104.817 348.697 102.132 354.857 98.893C364.299 93.927 367.593 84.0734 363.426 73.3475C362.167 70.1081 360.656 66.9664 359.179 63.4446C363.794 63.2422 366.045 66.4677 367.998 70.1071C372.836 79.1222 372.045 88.6281 371.081 98.3629C370.017 109.113 363.433 115.67 355.261 121.773Z" fill="#872323"/>
<path d="M388.985 139.999C390.477 136.81 391.97 133.62 393.718 130.215C394.613 154 394.317 178.055 390.586 201.738C388.088 217.588 383.457 233.208 378.598 248.557C371.298 271.618 358.549 292.124 344.218 311.257C334.95 323.631 322.843 333.904 311.822 344.932C300.075 356.688 286.299 365.874 271.785 373.638C246.826 386.99 220.274 395.863 192.157 400.228C167.37 404.077 142.746 403.712 118.079 399.864C101.854 397.333 86.3688 392.691 71.7702 384.857C41.4169 368.569 23.6707 342.276 11.8411 311.05C10.9725 308.757 9.6415 306.64 8.26758 304.221C8.00787 303.557 8.00609 303.113 8.00336 302.336C8.17207 302.002 8.34169 302.002 8.76599 302C9.92394 303.138 10.8272 304.278 11.9641 306.066C20.3102 330.745 33.0117 351.797 53.0587 367.737C73.2381 383.782 97.3166 390.707 122.142 394.556C143.041 397.796 164.13 398.023 185.343 395.269C222.57 390.435 256.594 378.098 287.538 356.641C308.131 342.362 326.049 325.619 340.998 305.557C360.98 278.74 375.141 249.316 382.044 216.461C387.346 191.225 387.793 165.587 388.985 139.999Z" fill="#640000"/>
<path d="M388.667 140.143C387.793 165.586 387.346 191.224 382.044 216.46C375.141 249.315 360.98 278.738 340.998 305.555C326.049 325.618 308.131 342.361 287.538 356.639C256.594 378.096 222.57 390.433 185.343 395.267C164.13 398.022 143.041 397.795 122.142 394.554C97.3165 390.706 73.2381 383.78 53.0587 367.735C33.0117 351.796 20.3102 330.744 12.1019 306.355C12.7529 305.997 13.4996 305.999 14.7311 306.298C15.4762 307.396 15.7366 308.197 15.9969 308.998C16.1945 310.623 16.0329 312.399 16.6435 313.85C25.9516 335.971 39.1836 355.398 59.7401 368.207C80.478 381.129 103.56 388.218 128.085 390.008C137.857 390.722 147.629 391.479 157.414 391.972C181.899 393.206 205.625 388.175 228.63 380.912C255.16 372.537 279.024 358.671 300.735 341.006C326.13 320.342 345.592 295.027 359.812 265.877C371.248 242.436 378.833 217.552 381.016 191.34C382.23 176.766 382.883 162.145 384.234 147.586C384.469 145.048 386.921 142.715 388.667 140.143Z" fill="#660000"/>
<path d="M16.2336 309.239C15.7366 308.198 15.4762 307.397 15.1046 306.3C14.6261 302.881 14.2589 299.757 13.9435 296.318C18.0687 304.192 21.9472 312.485 26.2529 320.551C37.888 342.345 56.4816 356.082 78.9286 365.082C114.953 379.525 152.449 382.497 190.419 376.918C223.646 372.036 254.694 360 281.711 339.877C313.197 316.425 338.11 287.044 353.077 250.318C362.158 228.035 368.566 204.939 369.142 180.551C369.314 173.249 370.219 165.928 371.368 158.708C371.733 156.417 373.979 154.425 375.678 152.148C375.484 185.01 371.492 217.492 359.224 248.369C351.39 268.088 340.915 286.458 326.956 302.652C321.419 309.075 316.444 316.064 310.39 321.949C278.514 352.938 240.716 372.772 196.911 380.83C166.183 386.482 135.413 385.738 105.176 378.413C82.2974 372.871 60.0634 364.975 42.915 347.417C34.1125 338.403 27.0639 328.175 21.4048 316.93C20.075 314.287 18.1315 311.954 16.2336 309.239Z" fill="#6E0000"/>
<path d="M6.87959 289.746C6.54938 290 6.10576 289.999 5.32927 289.996C4.99503 289.552 4.99365 289.11 4.99048 288.337C5.15733 288.004 5.326 288.003 5.74768 288C6.25584 288.496 6.51102 288.993 6.87959 289.746Z" fill="#640000"/>
<path d="M5.87909 285.746C5.66513 285.464 5.33739 284.928 5.0072 284.197C5.25827 284.499 5.51178 284.995 5.87909 285.746Z" fill="#640000"/>
<path d="M120.738 62.1699C121.278 62.552 121.552 63.0695 121.991 63.834C122.266 66.3285 122.375 68.576 122.66 71.312C120.452 77.9943 120.529 85.4105 113.633 89.383C112.572 89.9939 112.523 92.3596 111.677 94.0307C109.211 95.4329 107.074 96.718 104.733 97.7731C103.63 96.68 102.731 95.817 101.914 94.5773C103.615 88.2052 105.234 82.2099 106.854 76.2146C110.732 72.0189 114.61 67.8233 118.669 63.3754C119.391 62.8506 119.931 62.578 120.738 62.1699Z" fill="#B02121"/>
<path d="M26.2512 363.124C26.0018 362.556 26.0017 362.112 26.0021 361.336C26.5984 361.809 27.1943 362.615 27.8944 363.709C27.4993 363.748 27 363.498 26.2512 363.124Z" fill="#500000"/>
<path d="M292.117 155.883C293.207 156.184 294.298 156.485 295.716 156.877C296.039 157.724 296.032 158.48 296.02 160.076C295.683 166.563 295.377 172.213 295.015 177.859C293.519 201.161 285.749 222.467 273.336 241.96C264.64 255.615 253.708 267.304 240.625 277.286C227.235 287.502 212.313 294.232 196.757 299.527C181.03 304.879 164.44 305.714 147.86 304.965C129.065 304.115 111.597 298.108 94.7189 290.424C77.4514 282.563 63.4887 270.356 51.328 255.868C38.8783 241.036 32.7051 224.029 33.1228 204.804C33.5706 184.194 38.3514 164.48 48.0088 146.23C53.8355 135.219 60.6324 124.722 66.9934 113.994C66.9934 113.994 66.9987 113.498 67.2753 113.103C68.3659 111.804 69.1799 110.9 69.9939 109.996C75.1037 104.756 80.2135 99.5164 85.5415 94.4668C85.1612 96.1166 84.5627 97.5763 83.7041 99.2356C79.2932 104.954 75.1424 110.472 70.718 116.138C69.6302 117.19 68.8161 118.095 67.9991 119.248C67.9963 119.495 67.9915 119.991 67.6945 120.144C65.5943 122.223 63.2786 123.875 62.0745 126.123C56.191 137.104 49.7555 147.902 45.1105 159.408C38.0822 176.818 35.696 195.337 38.9414 213.872C43.0333 237.242 57.694 254.269 75.4 268.862C90.4557 281.27 108.045 288.933 126.776 293.516C137.031 296.025 147.87 297.981 158.322 297.501C185.317 296.262 210.481 288.945 233.021 272.866C262.522 251.824 278.848 222.963 285.869 188.275C287.87 178.386 288.007 168.119 289.244 157.833C290.365 157.055 291.241 156.469 292.117 155.883Z" fill="#A20000"/>
<path d="M310.948 161.395C312.171 162.929 314.516 165.009 314.294 166.764C312.728 179.118 310.733 191.421 308.683 203.708C305.437 223.172 296.49 240.262 285.417 256.167C268.815 280.014 247.013 297.49 220.431 309.766C201.014 318.733 180.588 322.069 159.937 323.411C147.412 324.224 134.414 321.55 121.963 318.882C100.425 314.265 80.6406 305.236 63.064 291.707C46.5063 278.962 32.5876 264.318 27.5968 243.129C22.5921 221.882 24.0009 200.84 29.616 179.942C29.9476 178.708 30.8558 177.629 31.7454 176.238C28.9291 190.178 26.2837 204.351 26.9163 219.029C27.7102 237.448 33.0843 253.85 45.2833 267.989C62.1243 287.508 82.8074 300.718 107.188 309.125C130.54 317.177 154.244 320.209 178.492 316.665C191.221 314.805 204.249 312.834 215.771 306.147C227.25 299.485 239.529 293.891 250.052 285.963C269.453 271.345 284.268 252.569 294.49 230.329C303.213 211.349 307.824 191.403 309.234 170.624C309.435 167.656 310.316 164.734 310.948 161.395Z" fill="#970000"/>
<path d="M66.687 114.135C60.6324 124.722 53.8355 135.219 48.0088 146.23C38.3513 164.479 33.5705 184.194 33.1228 204.804C32.7051 224.028 38.8783 241.035 51.328 255.868C63.4886 270.356 77.4514 282.563 94.7189 290.424C111.597 298.108 129.065 304.115 147.86 304.964C164.44 305.713 181.03 304.879 196.757 299.526C212.313 294.232 227.235 287.501 240.625 277.285C253.708 267.304 264.64 255.615 273.336 241.96C285.749 222.467 293.519 201.161 295.015 177.859C295.377 172.213 295.683 166.563 296.019 160.453C297.554 163.869 300.652 167.867 300.366 171.607C298.043 201.988 288.439 230.004 269.78 254.251C254.393 274.246 234.503 288.392 211.112 298.488C184.454 309.994 156.971 312.156 129.446 306.467C91.5864 298.64 59.8906 279.986 39.6741 245.407C31.1422 230.814 29.8358 214.818 31.3423 198.454C34.0473 169.071 44.1255 142.442 61.8527 118.793C63.1182 117.104 64.8602 115.773 66.687 114.135Z" fill="#9F0101"/>
<path d="M83.9642 99.0361C84.5627 97.5764 85.1612 96.1168 85.8493 94.3314C86.2483 92.8981 86.5576 91.7904 86.9608 90.3513C90.9351 87.2915 94.8206 84.5704 98.694 81.8323C101.221 80.0459 103.731 78.2347 106.551 76.3242C105.234 82.2092 103.615 88.2044 101.611 94.7166C96.8109 97.8253 92.3948 100.417 87.7893 102.757C86.388 101.349 85.1761 100.192 83.9642 99.0361Z" fill="#AC0B0B"/>
<path d="M69.7203 110.143C69.1799 110.9 68.3659 111.804 67.2781 112.854C67.8185 112.097 68.6326 111.193 69.7203 110.143Z" fill="#9F0101"/>
<path d="M24.1902 186.839C24.2553 186.197 24.5029 185.391 24.8767 184.293C24.7928 184.893 24.5827 185.783 24.1902 186.839Z" fill="#8E0000"/>
<path d="M24.04 190.801C23.9701 190.465 23.9433 189.931 23.9593 189.199C24.0291 189.535 24.056 190.069 24.04 190.801Z" fill="#8E0000"/>
<path d="M309.618 121.825C306.295 130.28 304.809 131.164 295.554 130.663C288.826 130.299 282.621 131.305 277.833 137.636C270.472 136.905 263.723 135.961 256.998 134.624C258.358 132.127 259.284 129.525 261.114 128.024C264.897 124.92 264.967 123.67 260.529 121.461C257.708 120.056 254.919 118.585 252.345 116.894C255.938 115.067 259.162 112.936 262.699 112.028C269.347 110.322 276.175 109.323 282.929 108.029C288.321 107.683 293.713 107.338 299.575 106.98C304.053 111.61 304.053 111.61 297.344 118.933C301.547 119.9 305.408 120.789 309.618 121.825Z" fill="#B02121"/>
<path d="M316.042 78.1101C308.517 80.111 300.776 81.5442 293.533 84.2916C287.698 86.5055 287.927 88.3021 293.152 91.623C293.963 92.1382 294.678 92.8047 296.695 94.39C291.407 96.3801 287.044 98.0221 281.874 99.8104C273.992 99.6001 266.917 99.2435 259.682 98.6052C255.114 96.7779 250.64 95.3941 246.32 93.6329C243.144 92.3381 240.169 90.5493 237.468 88.8717C242.21 87.9254 246.565 86.5678 250.973 86.3665C258.528 86.0214 264.673 83.0897 270.42 77.9572C281.689 78.0054 290.991 73.5863 300.285 67.9781C304.441 66.6203 308.22 65.3291 312.317 64.1738C316.098 66.2046 319.562 68.0995 322.863 70.2895C320.481 73.0931 318.261 75.6016 316.042 78.1101Z" fill="#B74747"/>
<path d="M316.317 78.2976C318.261 75.6019 320.481 73.0935 323.16 70.1305C331.427 64.2496 331.676 58.3593 323.798 53.3481C316.809 48.9024 309.595 44.6903 302.1 41.1904C292.098 36.5196 281.289 34.9363 270.334 33.3341C240.326 28.9454 210.946 30.4203 182.066 39.7751C179.509 40.6034 177.305 42.5229 174.522 43.951C170.054 44.9582 166 45.95 161.946 46.9418C164.397 44.8989 166.704 42.6402 169.341 40.8747C171.905 39.158 174.807 37.9467 177.783 36.2592C179.981 35.7602 182.062 35.8329 183.919 35.2224C205.576 28.0997 227.929 26.064 250.481 27.1245C281.101 28.5645 310.185 35.2573 334.771 55.8226C336.101 59.1702 337.14 62.3081 338.261 65.4167C339.852 69.832 340.784 74.1465 336.806 77.8956C331.565 82.8351 327.124 83.7931 321.4 81.1284C319.746 80.3582 318.193 79.372 316.317 78.2976Z" fill="#974949"/>
<path d="M259.842 98.8867C266.917 99.2434 273.992 99.6 281.536 99.9434C282.282 102.362 282.56 104.795 282.883 107.628C276.175 109.322 269.347 110.322 262.699 112.028C259.162 112.935 255.938 115.066 251.914 116.896C248.47 117.471 245.685 117.795 242.485 118.091C234.705 117.043 227.338 116.022 220.083 114.662C221.653 107.387 228.155 107.315 233.413 104.936C242.843 104.301 252.055 104.655 259.842 98.8867Z" fill="#C73030"/>
<path d="M112.006 93.9123C112.523 92.3582 112.572 89.9926 113.633 89.3817C120.529 85.4091 120.452 77.993 122.908 71.4348C125.788 69.4874 128.595 67.9042 131.613 66.5684C131.548 69.2439 131.271 71.6721 130.776 74.3479C127.304 78.854 124.591 83.2815 126.121 89.4083C126.781 95.5279 127.389 101.253 127.71 106.944C126.284 108.284 125.147 109.657 123.648 110.96C121.196 110.249 119.105 109.609 116.914 108.623C115.211 103.489 113.608 98.7007 112.006 93.9123Z" fill="#C73030"/>
<path d="M130.994 74.1007C131.271 71.6725 131.548 69.2442 131.925 66.4323C133.676 64.6752 135.193 63.0854 137.002 61.9659C145.059 56.9779 153.2 52.1245 161.628 47.0819C166 45.9497 170.054 44.9579 174.865 43.9688C176.079 43.9848 176.535 43.9981 176.812 44.2841C175.073 46.3727 173.511 48.1886 171.665 50.1778C169.552 51.251 167.725 52.1509 165.559 53.1525C154.241 57.2028 143.615 61.6376 137.64 73.0686C135.165 73.4522 133.079 73.7765 130.994 74.1007Z" fill="#B74747"/>
<path d="M256.973 135.016C263.723 135.96 270.472 136.904 277.627 137.893C278.036 138.703 278.039 139.47 277.752 140.794C274.636 144.251 271.811 147.15 268.721 150.242C265.312 154.294 262.167 158.153 258.762 162.011C258.328 162.011 258.155 162.011 257.578 162.071C254.115 162.427 251.057 162.722 247.707 162.889C246.607 162.514 245.797 162.268 244.75 161.784C242.881 160.912 241.182 159.619 239.633 159.779C236.388 160.113 233.221 161.211 229.583 161.992C227.104 161.986 225.064 161.983 222.723 161.832C220.96 161.122 219.497 160.561 218.095 159.623C219.46 155.163 220.765 151.079 222.435 146.904C225.163 146.1 227.57 145.507 229.881 144.653C234.295 143.021 238.615 141.132 243.047 139.553C247.644 137.915 252.327 136.518 256.973 135.016Z" fill="#C10909"/>
<path d="M268.985 150.05C271.811 147.151 274.636 144.252 277.755 141.178C281.973 141.338 285.892 141.778 289.824 141.981C293.516 142.171 294.807 143.96 294.011 147.466C293.43 150.029 292.859 152.595 292.2 155.522C291.241 156.47 290.365 157.056 288.825 157.839C285.439 158.365 282.715 158.693 279.793 158.754C276.057 155.674 272.521 152.862 268.985 150.05Z" fill="#AC0B0B"/>
<path d="M87.9786 103.009C92.3947 100.418 96.8109 97.8257 101.53 95.0938C102.731 95.8167 103.63 96.6796 104.736 98.2113C105.947 103.947 106.95 109.015 107.806 114.381C105.444 118.468 103.23 122.255 100.615 126.035C99.1424 126.021 98.0716 126.012 96.7003 125.807C93.266 124.746 90.1323 123.88 86.7531 122.878C86.0026 122.497 85.4974 122.252 84.9934 121.57C84.9907 119.095 84.9866 117.056 85.0677 114.683C85.4282 113.236 85.7034 112.123 85.981 110.634C85.9768 109.508 85.9703 108.757 86.085 107.692C86.7971 105.921 87.3878 104.465 87.9786 103.009Z" fill="#C10909"/>
<path d="M107.954 114.081C106.95 109.014 105.947 103.946 104.94 98.4403C107.074 96.7166 109.211 95.4315 111.677 94.0293C113.608 98.7006 115.211 103.489 116.918 109.063C117.353 112.947 117.682 116.045 117.661 119.043C114.191 117.322 111.072 115.701 107.954 114.081Z" fill="#CA1C1C"/>
<path d="M87.7893 102.757C87.3879 104.465 86.7971 105.921 85.7696 107.783C83.8829 109.125 82.4329 110.061 80.6883 111.133C79.2644 112.512 78.1353 113.755 77.0015 115.247C76.997 115.496 76.9878 115.992 76.6813 116.133C75.1424 117.364 73.5378 118.233 72.737 119.579C66.9637 129.287 60.336 138.658 55.9406 148.971C50.0454 162.804 46.5627 177.599 48.5622 192.863C52.6474 224.05 70.3493 246.632 96.093 262.781C119.583 277.516 145.431 283.71 173.493 279.308C194.824 275.961 213.787 267.579 230.235 253.998C255.915 232.792 267.863 204.219 272.001 171.909C272.685 166.565 274.736 162.751 279.983 161.464C279.059 170.683 278.539 179.504 277.129 188.18C273.171 212.534 262.552 234.009 245.543 251.59C229.961 267.696 210.865 278.678 188.896 284.663C167.947 290.37 147.138 290.369 126.304 285.157C99.4904 278.45 77.8184 263.546 60.733 242.024C51.7232 230.675 44.6333 218.146 43.2598 203.384C41.0503 179.637 45.8955 157.366 58.3956 136.874C61.7649 131.35 64.802 125.624 67.9915 119.991C67.9915 119.991 67.9963 119.496 68.2733 119.102C69.3642 117.802 70.1779 116.897 70.9917 115.991C75.1425 110.473 79.2932 104.954 83.7041 99.2363C85.1761 100.193 86.388 101.349 87.7893 102.757Z" fill="#AD0000"/>
<path d="M67.6945 120.145C64.802 125.625 61.7649 131.351 58.3956 136.874C45.8955 157.366 41.0503 179.637 43.2598 203.384C44.6333 218.146 51.7232 230.675 60.733 242.024C77.8184 263.546 99.4904 278.45 126.304 285.158C147.138 290.37 167.947 290.37 188.896 284.663C210.865 278.679 229.961 267.696 245.543 251.59C262.552 234.009 273.171 212.534 277.129 188.18C278.539 179.504 279.059 170.683 279.986 161.134C279.988 159.901 279.99 159.462 279.992 159.022C282.715 158.693 285.439 158.365 288.58 158.031C288.007 168.12 287.87 178.387 285.869 188.276C278.848 222.963 262.522 251.825 233.022 272.867C210.481 288.945 185.317 296.263 158.322 297.502C147.87 297.982 137.031 296.026 126.776 293.517C108.045 288.934 90.4557 281.271 75.4 268.863C57.694 254.27 43.0334 237.243 38.9415 213.873C35.696 195.338 38.0823 176.819 45.1105 159.409C49.7555 147.902 56.191 137.105 62.0745 126.123C63.2786 123.876 65.5943 122.224 67.6945 120.145Z" fill="#AA0000"/>
<path d="M70.718 116.139C70.1779 116.897 69.3642 117.802 68.2762 118.854C68.8161 118.096 69.6302 117.191 70.718 116.139Z" fill="#AA0000"/>
<path d="M256.998 134.623C252.327 136.518 247.644 137.915 243.047 139.553C238.615 141.132 234.295 143.021 229.881 144.653C227.57 145.507 225.163 146.1 222.091 146.772C218.575 145.836 215.767 144.939 212.754 143.794C211.033 142.024 209.519 140.501 208.143 138.734C207.21 132.628 210.694 130.146 215.509 128.456C216.474 128.118 217.12 126.871 218.385 126.038C221.34 126.015 223.837 125.813 226.3 126.015C233.403 126.595 238.816 123.798 242.899 118.118C245.685 117.794 248.47 117.47 251.686 117.145C254.919 118.584 257.708 120.055 260.529 121.46C264.967 123.669 264.897 124.919 261.114 128.023C259.284 129.524 258.358 132.126 256.998 134.623Z" fill="#CA1C1C"/>
<path d="M130.776 74.3479C133.079 73.7762 135.165 73.4519 137.76 73.3477C138.853 74.3909 139.437 75.214 140.038 76.4289C140.115 82.1952 143.042 85.7104 147.873 87.179C152.423 88.5621 157.226 89.8001 161.93 89.8475C173.036 89.9592 184.154 89.4411 195.258 88.9602C207.503 88.4299 219.738 87.6567 232.294 87.1178C234.108 87.8243 235.606 88.4023 237.105 88.9804C240.169 90.5491 243.144 92.3379 246.32 93.6327C250.64 95.3939 255.114 96.7777 259.682 98.605C252.055 104.655 242.843 104.301 233.179 104.699C227.319 99.7352 221.125 99.9876 214.657 100.343C195.425 101.4 176.181 102.42 156.928 102.813C147.947 102.996 139.565 100.523 133.353 92.9567C131.731 90.9811 128.54 90.2932 126.07 89.0138C124.591 83.2815 127.304 78.8541 130.776 74.3479Z" fill="#D04343"/>
<path d="M171.949 50.0048C173.511 48.1889 175.073 46.373 177.185 44.1913C199.435 36.494 221.751 33.2447 244.62 34.0383C263.298 34.6864 281.387 38.1937 298.19 46.7033C305.293 50.3003 311.936 54.6517 312 64.0384C308.22 65.3296 304.441 66.6208 300.095 67.7071C296.006 65.0102 292.483 62.5182 288.944 59.6358C287.604 56.6674 286.911 53.2316 284.821 51.6943C280.746 48.6963 276.104 46.127 271.316 44.5025C256.14 39.3536 240.343 38.1296 224.477 39.2254C211.378 40.13 198.294 41.7337 185.623 47.0663C180.801 48.0855 176.375 49.0451 171.949 50.0048Z" fill="#AD5656"/>
<path d="M312.317 64.1739C311.936 54.6513 305.293 50.3 298.19 46.7029C281.387 38.1933 263.298 34.6861 244.62 34.038C221.751 33.2444 199.435 36.4936 177.363 43.9182C176.535 43.9981 176.079 43.9847 175.28 43.9533C177.305 42.5226 179.509 40.6031 182.066 39.7748C210.946 30.42 240.326 28.9451 270.333 33.3338C281.289 34.936 292.098 36.5192 302.1 41.1901C309.595 44.69 316.809 48.9021 323.798 53.3478C331.676 58.359 331.427 64.2493 323.323 69.8351C319.562 68.0995 316.098 66.2047 312.317 64.1739Z" fill="#A44F4F"/>
<path d="M288.959 60.0254C292.483 62.5174 296.006 65.0093 299.719 67.7728C290.991 73.5858 281.689 78.005 270.101 77.7872C260.239 73.0326 250.5 75.3281 240.854 74.6924C238.472 72.2631 236.24 70.1276 234.326 67.8192C241.764 65.4321 248.885 63.218 256.414 61.0656C267.605 62.8115 278.426 65.6224 288.959 60.0254Z" fill="#C05757"/>
<path d="M241.005 74.9863C250.5 75.3281 260.239 73.0326 269.658 77.7899C264.673 83.0893 258.528 86.021 250.973 86.3661C246.565 86.5674 242.21 87.9249 237.468 88.8712C235.606 88.4021 234.108 87.8241 232.288 86.7007C231.642 83.4418 231.317 80.7282 231.387 77.9748C234.857 76.9522 237.931 75.9693 241.005 74.9863Z" fill="#C44B4B"/>
<path d="M126.121 89.4082C128.54 90.293 131.731 90.9809 133.353 92.9565C139.565 100.523 147.947 102.996 156.928 102.813C176.181 102.42 195.425 101.4 214.657 100.343C221.125 99.9874 227.319 99.735 232.731 104.702C228.155 107.315 221.653 107.386 219.684 114.723C216.033 115.192 212.89 115.378 209.753 115.309C193.296 114.95 176.805 113.698 160.397 114.402C148.587 114.91 137.952 113.172 127.998 106.978C127.389 101.253 126.781 95.5277 126.121 89.4082Z" fill="#D63333"/>
<path d="M127.71 106.945C137.952 113.173 148.587 114.911 160.397 114.404C176.805 113.699 193.296 114.951 209.753 115.311C212.89 115.379 216.033 115.194 219.573 115.064C227.338 116.023 234.705 117.044 242.485 118.092C238.816 123.799 233.403 126.596 226.3 126.016C223.837 125.815 221.34 126.016 218.038 125.894C213.631 125.183 210.05 124.165 206.456 124.12C191.145 123.928 175.828 124.177 160.517 123.959C151.013 123.823 141.414 123.215 132.844 118.588C129.511 116.788 126.932 113.592 124.01 111.032C125.147 109.659 126.284 108.285 127.71 106.945Z" fill="#D92A2A"/>
<path d="M123.648 110.961C126.932 113.592 129.511 116.788 132.844 118.588C141.414 123.215 151.013 123.823 160.517 123.958C175.828 124.177 191.145 123.928 206.456 124.12C210.05 124.165 213.631 125.183 217.565 125.899C217.12 126.872 216.474 128.119 215.509 128.457C210.694 130.148 207.21 132.629 207.683 138.742C183.922 140.585 160.908 139.748 137.908 136.159C127.239 134.495 121.272 128.758 118.012 119.144C117.682 116.046 117.353 112.948 117.018 109.41C119.105 109.61 121.196 110.25 123.648 110.961Z" fill="#DE1B1B"/>
<path d="M171.665 50.1779C176.375 49.0449 180.801 48.0853 185.79 47.3574C186.901 49.0602 187.449 50.5312 187.728 52.2049C182.969 56.2678 178.478 60.128 173.545 63.9926C168.068 64.6653 163.032 65.3336 158.064 65.6441C160.72 61.2077 163.309 57.1293 165.897 53.0509C167.725 52.151 169.552 51.2511 171.665 50.1779Z" fill="#C05757"/>
<path d="M165.559 53.1523C163.309 57.1291 160.72 61.2075 157.791 65.831C155.631 68.5881 153.812 70.8002 151.599 73.0497C147.477 74.0707 143.749 75.054 140.021 76.0374C139.437 75.2142 138.853 74.391 138.149 73.2885C143.615 61.6375 154.241 57.2027 165.559 53.1523Z" fill="#C44B4B"/>
<path d="M86.9986 123.016C90.1323 123.881 93.2661 124.746 96.6186 126.165C94.1522 136.475 90.9414 146.123 88.9215 156.015C86.6563 167.109 87.3437 178.439 91.4146 189.027C97.8067 205.653 108.262 218.782 124.424 227.602C139.74 235.961 155.852 237.132 171.936 233.821C197.187 228.625 213.78 212.43 222.656 188.308C224.44 183.46 226.41 178.662 227.841 173.709C228.938 169.912 229.321 165.909 230.022 161.997C233.221 161.213 236.388 160.114 239.633 159.78C241.182 159.621 242.881 160.914 244.66 162.152C242.376 169.294 238.934 175.651 237.712 182.41C234.76 198.725 224.379 210.679 214.515 222.571C202.264 237.341 185.651 244.806 166.302 246.718C144.749 248.848 125.661 243.306 108.033 231.122C96.4611 223.124 90.288 211.001 83.4237 199.547C80.1818 194.138 78.4368 187.473 77.4231 181.152C74.1609 160.81 78.9467 141.598 86.9986 123.016Z" fill="#C90202"/>
<path d="M84.9826 115.018C84.9866 117.056 84.9907 119.095 84.7911 121.84C69.5283 145.719 63.581 170.106 74.1151 196.954C86.6837 228.988 109.594 248.47 143.555 254.442C149.226 255.439 155.175 254.903 160.997 254.992C185.028 255.357 204.348 245.017 220.915 228.502C239.033 210.442 245.469 187.535 247.998 163.019C251.057 162.724 254.115 162.428 257.57 162.495C256.111 172.661 254.876 182.632 252.276 192.234C246.134 214.92 232.902 232.856 213.938 246.664C187.99 265.556 159.34 269.176 128.883 261.366C113.022 257.299 99.673 248.294 87.9506 237.219C76.1348 226.055 67.8872 212.217 63.2943 196.673C57.7592 177.94 58.9143 159.194 67.8536 141.695C72.6377 132.33 79.2146 123.88 84.9826 115.018Z" fill="#BF0000"/>
<path d="M247.707 162.889C245.469 187.533 239.033 210.44 220.915 228.501C204.348 245.016 185.028 255.355 160.997 254.99C155.175 254.902 149.226 255.438 143.555 254.441C109.594 248.469 86.6837 228.986 74.1151 196.953C63.581 170.104 69.5282 145.718 84.7898 122.275C85.4974 122.251 86.0026 122.496 86.7532 122.877C78.9466 141.596 74.1609 160.808 77.423 181.15C78.4368 187.472 80.1817 194.136 83.4237 199.545C90.288 210.999 96.461 223.122 108.033 231.12C125.661 243.305 144.749 248.847 166.301 246.717C185.651 244.804 202.264 237.339 214.515 222.57C224.378 210.678 234.76 198.723 237.712 182.408C238.934 175.65 242.376 169.293 244.898 162.387C245.797 162.267 246.607 162.514 247.707 162.889Z" fill="#C30000"/>
<path d="M218.035 160.002C219.497 160.562 220.96 161.123 222.657 162.224C221.553 168.263 220.34 173.796 218.851 179.253C215.505 191.514 209.856 202.608 200.712 211.536C177.873 233.839 138.79 234.114 116.047 213.236C100.233 198.719 92.2296 180.972 95.1415 159.328C96.4696 149.456 99.0494 139.753 101.366 130.105C103.46 132.16 105.249 134.081 107.009 136.427C106.114 143.117 105.219 149.38 104.388 155.65C101.28 179.078 108.869 198.116 128.669 211.279C149.996 225.456 174.044 222.129 192.173 206.725C206.064 194.922 211.462 177.59 215.359 159.996C216.505 159.996 217.27 159.999 218.035 160.002Z" fill="#D40303"/>
<path d="M279.793 158.753C279.99 159.46 279.988 159.9 279.983 160.669C274.736 162.75 272.685 166.564 272.001 171.908C267.863 204.218 255.915 232.791 230.235 253.997C213.787 267.578 194.824 275.96 173.493 279.307C145.431 283.709 119.583 277.514 96.0929 262.78C70.3493 246.631 52.6474 224.048 48.5621 192.862C46.5627 177.598 50.0454 162.803 55.9406 148.97C60.3359 138.657 66.9636 129.286 72.737 119.578C73.5378 118.232 75.1424 117.363 76.5494 116.449C71.7529 124.886 66.0819 132.81 61.9274 141.462C39.2643 188.661 57.1284 228.884 95.1774 256.649C109.493 267.095 126 272.35 143.734 274.899C165.065 277.965 184.769 273.663 203.97 265.244C218.081 259.057 229.443 249.245 239.749 237.878C256.616 219.274 263.686 196.779 266.87 172.605C267.26 169.645 266.556 166.877 262.819 165.746C261.426 164.334 260.224 163.173 259.022 162.013C262.167 158.153 265.312 154.294 268.721 150.242C272.521 152.861 276.057 155.673 279.793 158.753Z" fill="#B20000"/>
<path d="M258.762 162.012C260.224 163.174 261.426 164.335 262.724 166.127C262.143 170.186 261.373 173.598 260.807 177.043C257.833 195.149 252.496 212.292 241.388 227.29C227.116 246.56 208.563 259.588 185.566 266.309C166.539 271.869 147.331 271.863 128.424 266.487C107.559 260.553 90.1977 248.803 76.4822 231.85C62.9332 215.103 55.0058 196.402 56.1872 174.435C57.4422 151.097 68.2094 131.835 82.0251 113.886C82.9788 112.647 84.6442 111.956 85.9786 111.01C85.7034 112.123 85.4282 113.236 85.0677 114.683C79.2146 123.88 72.6377 132.329 67.8535 141.694C58.9143 159.193 57.7592 177.939 63.2943 196.673C67.8872 212.217 76.1347 226.055 87.9506 237.218C99.673 248.294 113.022 257.299 128.883 261.366C159.34 269.175 187.99 265.556 213.938 246.663C232.902 232.856 246.134 214.919 252.276 192.234C254.876 182.632 256.11 172.66 257.974 162.435C258.155 162.012 258.328 162.011 258.762 162.012Z" fill="#BA0000"/>
<path d="M101.061 129.971C99.0494 139.751 96.4696 149.455 95.1415 159.327C92.2296 180.971 100.233 198.718 116.047 213.235C138.79 234.112 177.873 233.837 200.712 211.535C209.856 202.606 215.505 191.513 218.851 179.252C220.34 173.795 221.553 168.262 222.958 162.372C225.064 161.983 227.104 161.986 229.583 161.992C229.321 165.908 228.938 169.911 227.841 173.708C226.41 178.66 224.44 183.459 222.656 188.307C213.78 212.429 197.187 228.623 171.936 233.82C155.852 237.13 139.74 235.959 124.424 227.6C108.262 218.78 97.8067 205.652 91.4146 189.026C87.3437 178.438 86.6563 167.108 88.9215 156.014C90.9414 146.122 94.1522 136.473 96.9191 126.36C98.0716 126.011 99.1424 126.02 100.622 126.427C101.041 127.874 101.051 128.923 101.061 129.971Z" fill="#D00202"/>
<path d="M218.095 159.624C217.27 159.998 216.505 159.995 214.928 160.003C209.073 161.012 204.03 162.01 198.541 163.008C196.438 163.081 194.779 163.131 193.123 163.227C167.743 164.704 142.341 166.356 118.942 152.631C117.599 147.841 116.32 143.429 115.423 139.055C117.403 139.517 119.212 139.595 120.563 140.422C129.8 146.074 140.219 147.57 150.606 148.445C163.321 149.515 176.147 149.257 188.871 150.258C197.799 150.961 205.473 148.207 212.96 144.043C215.767 144.939 218.575 145.836 221.726 146.865C220.765 151.08 219.46 155.163 218.095 159.624Z" fill="#E30A0A"/>
<path d="M85.981 110.634C84.6442 111.956 82.9788 112.647 82.0251 113.886C68.2094 131.835 57.4422 151.097 56.1872 174.435C55.0058 196.403 62.9332 215.103 76.4822 231.85C90.1977 248.803 107.559 260.553 128.424 266.487C147.331 271.864 166.539 271.87 185.566 266.309C208.563 259.588 227.116 246.561 241.388 227.29C252.496 212.292 257.833 195.149 260.807 177.044C261.373 173.598 262.143 170.186 262.915 166.378C266.556 166.878 267.26 169.646 266.87 172.606C263.686 196.78 256.616 219.276 239.749 237.879C229.443 249.247 218.081 259.058 203.97 265.246C184.769 273.665 165.065 277.966 143.734 274.901C126 272.352 109.493 267.096 95.1775 256.65C57.1284 228.885 39.2643 188.663 61.9274 141.463C66.0819 132.811 71.7529 124.887 76.8558 116.309C76.9878 115.992 76.997 115.496 77.2972 115.113C78.726 113.485 79.8545 112.241 80.983 110.997C82.4329 110.061 83.8829 109.125 85.6483 108.098C85.9703 108.757 85.9769 109.508 85.981 110.634Z" fill="#B60000"/>
<path d="M212.754 143.795C205.473 148.208 197.799 150.962 188.871 150.259C176.147 149.257 163.321 149.515 150.606 148.445C140.219 147.571 129.8 146.075 120.563 140.422C119.212 139.595 117.403 139.517 115.062 138.983C111.892 137.915 109.465 136.958 107.039 136.001C105.249 134.08 103.46 132.159 101.366 130.105C101.051 128.923 101.041 127.874 101.024 126.433C103.23 122.254 105.444 118.467 107.806 114.381C111.072 115.702 114.191 117.322 117.661 119.043C121.272 128.757 127.239 134.494 137.908 136.159C160.908 139.747 183.922 140.584 207.545 138.986C209.519 140.502 211.033 142.025 212.754 143.795Z" fill="#E11111"/>
<path d="M80.6883 111.133C79.8545 112.242 78.726 113.486 77.3018 114.864C78.1352 113.756 79.2644 112.512 80.6883 111.133Z" fill="#B20000"/>
<path d="M140.038 76.4296C143.749 75.0546 147.477 74.0713 151.805 73.3164C156.688 79.3855 163.153 79.751 169.437 79.894C181.038 80.1579 192.657 80.2366 204.254 79.9117C213.177 79.6617 222.08 78.6748 230.991 78.0155C231.317 80.7292 231.642 83.4428 231.972 86.5733C219.738 87.6575 207.503 88.4307 195.258 88.961C184.154 89.4419 173.036 89.9599 161.93 89.8482C157.226 89.8009 152.423 88.5628 147.873 87.1798C143.042 85.7112 140.115 82.196 140.038 76.4296Z" fill="#CF4B4B"/>
<path d="M187.997 52.0019C187.449 50.5308 186.901 49.0598 186.187 47.2974C198.294 41.7331 211.378 40.1294 224.477 39.2248C240.343 38.129 256.14 39.353 271.316 44.5019C276.104 46.1264 280.746 48.6957 284.821 51.6937C286.911 53.231 287.604 56.6668 288.944 59.6352C278.426 65.6227 267.605 62.8118 256.278 60.7543C252.34 54.7984 247.378 50.9773 241 50.3254C231.291 49.333 221.473 48.7001 211.73 48.9636C203.797 49.1781 195.906 50.9311 187.997 52.0019Z" fill="#B95D5D"/>
<path d="M187.728 52.2051C195.906 50.9317 203.797 49.1787 211.73 48.9642C221.473 48.7007 231.291 49.3337 241 50.3261C247.378 50.9779 252.34 54.799 255.87 60.6932C248.885 63.2189 241.765 65.433 233.917 67.731C231.056 67.5549 228.923 67.0849 226.787 67.0697C214.855 66.9852 202.91 67.3213 190.995 66.8636C185.297 66.6448 179.654 64.9919 173.987 63.9885C178.478 60.1282 182.969 56.268 187.728 52.2051Z" fill="#C65E5E"/>
<path d="M173.545 63.9922C179.654 64.9912 185.297 66.6441 190.995 66.863C202.91 67.3206 214.855 66.9845 226.787 67.0691C228.923 67.0842 231.056 67.5543 233.6 67.9033C236.24 70.1279 238.472 72.2633 240.854 74.6926C237.931 75.9695 234.857 76.9524 231.387 77.975C222.08 78.674 213.177 79.6609 204.254 79.9109C192.657 80.2358 181.038 80.1571 169.437 79.8931C163.153 79.7502 156.688 79.3847 152.2 73.278C153.812 70.7999 155.631 68.5879 157.723 66.1887C163.032 65.3332 168.068 64.6648 173.545 63.9922Z" fill="#CC5555"/>
<path d="M107.009 136.426C109.465 136.958 111.892 137.915 114.68 138.945C116.32 143.429 117.599 147.841 118.808 152.994C115.173 164.452 115.73 174.705 122.142 184.319C122.692 185.145 123.05 186.099 123.503 186.99C134.128 207.899 157.624 209.761 175.403 202.721C176.467 202.3 177.393 201.517 178.362 200.872C191.886 191.874 198.5 179.109 198.987 163.008C204.03 162.01 209.073 161.013 214.546 160.007C211.462 177.59 206.064 194.921 192.173 206.724C174.044 222.128 149.996 225.455 128.669 211.278C108.869 198.115 101.28 179.078 104.387 155.65C105.219 149.379 106.114 143.117 107.009 136.426Z" fill="#DA0404"/>
<path d="M198.541 163.008C198.5 179.108 191.886 191.873 178.362 200.872C177.393 201.517 176.467 202.299 175.403 202.72C157.624 209.76 134.128 207.898 123.503 186.989C123.05 186.098 122.693 185.144 122.142 184.318C115.73 174.704 115.173 164.452 118.872 153.371C142.341 166.356 167.743 164.704 193.123 163.227C194.779 163.13 196.438 163.08 198.541 163.008Z" fill="#E20404"/>
</g>
<defs>
<clipPath id="clip0_730_1058">
<rect width="494" height="512" fill="white"/>
</clipPath>
</defs>
</svg>
