<svg width="1435" height="1112" viewBox="0 0 1435 1112" fill="none" xmlns="http://www.w3.org/2000/svg">
<g clip-path="url(#clip0_726_1096)">
<path d="M88.5659 1108.66C88.5659 1085.85 97.2252 1063.97 112.639 1047.85C128.053 1031.72 148.958 1022.66 170.756 1022.66C192.555 1022.66 213.46 1031.72 228.874 1047.85C244.287 1063.97 252.947 1085.85 252.947 1108.66" fill="#CA1D05"/>
<path d="M170.756 1108.66C170.167 1108.66 169.602 1108.42 169.185 1107.98C168.769 1107.54 168.535 1106.95 168.535 1106.34V1061.01C168.535 1060.39 168.769 1059.8 169.185 1059.37C169.602 1058.93 170.167 1058.69 170.756 1058.69C171.345 1058.69 171.91 1058.93 172.327 1059.37C172.744 1059.8 172.978 1060.39 172.978 1061.01V1106.34C172.978 1106.95 172.744 1107.54 172.327 1107.98C171.91 1108.42 171.345 1108.66 170.756 1108.66Z" fill="#0FCABF"/>
<path d="M170.755 1093.08C170.225 1093.09 169.711 1092.89 169.309 1092.52L142.653 1068.58C142.43 1068.39 142.246 1068.14 142.113 1067.87C141.98 1067.6 141.899 1067.3 141.876 1066.99C141.853 1066.69 141.888 1066.38 141.978 1066.09C142.069 1065.8 142.214 1065.53 142.405 1065.3C142.595 1065.07 142.828 1064.87 143.09 1064.74C143.351 1064.6 143.636 1064.52 143.928 1064.49C144.22 1064.47 144.513 1064.51 144.791 1064.61C145.069 1064.7 145.326 1064.86 145.547 1065.06L172.203 1089C172.548 1089.31 172.793 1089.72 172.907 1090.18C173.021 1090.64 172.997 1091.12 172.839 1091.57C172.682 1092.01 172.397 1092.4 172.025 1092.67C171.652 1092.94 171.209 1093.08 170.755 1093.08Z" fill="#0FCABF"/>
<path d="M341.801 1108.66C341.801 1085.85 350.461 1063.97 365.874 1047.85C381.288 1031.72 402.193 1022.66 423.992 1022.66C445.79 1022.66 466.695 1031.72 482.109 1047.85C497.523 1063.97 506.182 1085.85 506.182 1108.66" fill="#CA1D05"/>
<path d="M423.992 1108.66C423.402 1108.66 422.837 1108.42 422.421 1107.98C422.004 1107.54 421.77 1106.95 421.77 1106.34V1061.01C421.77 1060.39 422.004 1059.8 422.421 1059.37C422.837 1058.93 423.402 1058.69 423.992 1058.69C424.581 1058.69 425.146 1058.93 425.562 1059.37C425.979 1059.8 426.213 1060.39 426.213 1061.01V1106.34C426.213 1106.95 425.979 1107.54 425.562 1107.98C425.146 1108.42 424.581 1108.66 423.992 1108.66Z" fill="#0FCABF"/>
<path d="M423.99 1093.08C423.46 1093.09 422.947 1092.89 422.545 1092.52L395.888 1068.58C395.441 1068.18 395.165 1067.61 395.12 1067C395.075 1066.38 395.266 1065.77 395.65 1065.31C396.033 1064.84 396.579 1064.55 397.166 1064.5C397.754 1064.46 398.335 1064.66 398.782 1065.06L425.438 1089C425.783 1089.31 426.028 1089.72 426.142 1090.18C426.256 1090.64 426.232 1091.12 426.074 1091.57C425.917 1092.01 425.632 1092.4 425.26 1092.67C424.887 1092.94 424.444 1093.08 423.99 1093.08Z" fill="#0FCABF"/>
<path d="M512.846 405.381C531.248 405.381 546.167 389.771 546.167 370.515C546.167 351.259 531.248 335.648 512.846 335.648C494.444 335.648 479.526 351.259 479.526 370.515C479.526 389.771 494.444 405.381 512.846 405.381Z" fill="white"/>
<path d="M512.846 335.648C506.256 335.648 499.814 337.693 494.334 341.524C488.855 345.356 484.584 350.801 482.062 357.172C479.54 363.543 478.88 370.553 480.166 377.317C481.452 384.08 484.625 390.292 489.285 395.169C493.945 400.045 499.882 403.365 506.346 404.711C512.809 406.056 519.509 405.366 525.597 402.727C531.686 400.088 536.89 395.619 540.551 389.885C544.212 384.151 546.166 377.41 546.166 370.515C546.166 361.267 542.656 352.399 536.407 345.86C530.158 339.322 521.683 335.648 512.846 335.648ZM504.868 385.738C504.868 385.998 504.769 386.248 504.593 386.432C504.417 386.616 504.178 386.72 503.929 386.72H496.421C496.172 386.72 495.933 386.616 495.757 386.432C495.581 386.248 495.482 385.998 495.482 385.738V367.077C495.482 366.816 495.581 366.567 495.757 366.382C495.933 366.198 496.172 366.095 496.421 366.095H503.929C504.178 366.095 504.417 366.198 504.593 366.382C504.769 366.567 504.868 366.816 504.868 367.077V385.738ZM530.21 371.006C530.21 371.787 529.914 372.536 529.385 373.089C528.857 373.642 528.141 373.952 527.394 373.952V374.002C527.924 374.115 528.401 374.416 528.743 374.854C529.085 375.293 529.272 375.842 529.272 376.407C529.272 376.973 529.085 377.522 528.743 377.96C528.401 378.399 527.924 378.7 527.394 378.813V379.845C527.892 379.845 528.37 380.052 528.722 380.42C529.074 380.789 529.272 381.288 529.272 381.809C529.272 382.33 529.074 382.83 528.722 383.198C528.37 383.567 527.892 383.774 527.394 383.774H508.622C508.373 383.774 508.135 383.67 507.959 383.486C507.783 383.302 507.684 383.052 507.684 382.791V367.077C507.684 362.166 515.193 355.291 515.193 355.291V352.897C515.192 352.169 515.446 351.466 515.908 350.921C516.37 350.377 517.007 350.028 517.697 349.942C518.388 349.856 519.085 350.039 519.656 350.455C520.227 350.871 520.632 351.492 520.795 352.2L520.824 352.345C521.189 355.806 520.382 359.291 518.544 362.193H524.322C524.408 362.185 524.491 362.166 524.579 362.166H527.394C526.648 363.729 526.525 365.539 527.053 367.196C527.581 368.854 528.717 370.224 530.21 371.006Z" fill="#5E90FF"/>
<path d="M561.716 217.104C587.479 217.104 608.365 195.249 608.365 168.291C608.365 141.333 587.479 119.479 561.716 119.479C535.953 119.479 515.067 141.333 515.067 168.291C515.067 195.249 535.953 217.104 561.716 217.104Z" fill="white"/>
<path d="M561.716 119.479C552.49 119.479 543.471 122.341 535.799 127.705C528.128 133.068 522.149 140.692 518.618 149.611C515.088 158.531 514.164 168.345 515.964 177.814C517.764 187.283 522.206 195.98 528.73 202.807C535.254 209.633 543.566 214.282 552.615 216.166C561.664 218.049 571.044 217.082 579.568 213.388C588.092 209.693 595.377 203.437 600.503 195.41C605.629 187.383 608.365 177.945 608.365 168.291C608.365 155.345 603.45 142.929 594.702 133.775C585.953 124.621 574.088 119.479 561.716 119.479ZM550.547 189.604C550.547 189.968 550.408 190.318 550.162 190.576C549.915 190.834 549.581 190.978 549.233 190.978H538.72C538.372 190.978 538.038 190.834 537.791 190.576C537.545 190.318 537.406 189.968 537.406 189.604V163.479C537.406 163.114 537.545 162.764 537.791 162.506C538.038 162.248 538.372 162.104 538.72 162.104H549.233C549.581 162.104 549.915 162.248 550.162 162.506C550.408 162.764 550.547 163.114 550.547 163.479V189.604ZM586.026 168.978C586.026 170.072 585.61 171.122 584.871 171.895C584.132 172.669 583.129 173.103 582.084 173.103V173.173C582.826 173.331 583.492 173.753 583.971 174.367C584.45 174.981 584.712 175.749 584.712 176.541C584.712 177.333 584.45 178.101 583.971 178.715C583.492 179.329 582.826 179.751 582.084 179.909V181.353C582.781 181.353 583.449 181.643 583.942 182.159C584.435 182.675 584.712 183.374 584.712 184.103C584.712 184.833 584.435 185.532 583.942 186.048C583.449 186.564 582.781 186.854 582.084 186.854H555.803C555.454 186.854 555.12 186.709 554.874 186.451C554.627 186.193 554.489 185.843 554.489 185.479V163.479C554.489 156.603 565.001 146.978 565.001 146.978V143.626C565 142.607 565.356 141.623 566.003 140.86C566.649 140.098 567.541 139.61 568.508 139.49C569.475 139.369 570.451 139.625 571.25 140.207C572.05 140.79 572.617 141.659 572.844 142.65C572.858 142.717 572.872 142.785 572.885 142.854C574.199 149.729 569.693 156.641 569.693 156.641H577.783C577.903 156.63 578.019 156.603 578.142 156.603H582.084C583.129 156.603 584.132 157.038 584.871 157.812C585.611 158.585 586.026 159.634 586.026 160.728C586.026 161.823 585.611 162.872 584.871 163.645C584.132 164.419 583.129 164.854 582.084 164.854C583.129 164.854 584.132 165.288 584.871 166.062C585.61 166.835 586.026 167.884 586.026 168.978Z" fill="#5E90FF"/>
<path d="M665.571 691.743C668.969 690.917 672.153 689.322 674.898 687.069C677.643 684.816 679.883 681.961 681.46 678.705C683.036 675.448 683.911 671.87 684.023 668.221C684.135 664.572 683.481 660.943 682.108 657.587L770.079 449.618L719.755 436.354L649.106 644.952C643.872 647.741 639.797 652.441 637.654 658.164C635.51 663.886 635.447 670.232 637.477 676C639.506 681.767 643.487 686.555 648.665 689.457C653.843 692.358 659.858 693.172 665.571 691.743Z" fill="#F0A560"/>
<path d="M744.842 514.704L695.898 490.731C694.505 490.049 693.269 489.061 692.274 487.834C691.28 486.607 690.549 485.17 690.133 483.622C689.717 482.073 689.625 480.448 689.863 478.858C690.101 477.269 690.663 475.752 691.512 474.41L721.257 427.404C724.635 419.974 730.691 414.247 738.097 411.479C745.503 408.712 753.655 409.129 760.768 412.639C767.881 416.15 773.373 422.467 776.043 430.207C778.712 437.948 778.341 446.48 775.01 453.934L759.629 507.774C759.188 509.315 758.435 510.739 757.42 511.948C756.406 513.158 755.155 514.124 753.752 514.782C752.348 515.44 750.826 515.773 749.289 515.76C747.751 515.746 746.234 515.386 744.842 514.704Z" fill="#0FCABF"/>
<path d="M574.671 487.958L628.632 527.934C629.323 528.458 630.156 528.741 631.01 528.741C631.864 528.741 632.696 528.458 633.388 527.934L647.969 516.477C648.454 516.106 648.852 515.625 649.135 515.071C649.418 514.517 649.578 513.903 649.603 513.275C649.628 512.647 649.518 512.022 649.28 511.444C649.043 510.867 648.684 510.354 648.23 509.942L606.708 471.197C606.162 470.698 605.5 470.359 604.789 470.215C604.077 470.071 603.342 470.127 602.658 470.376L575.638 480.493C574.944 480.761 574.333 481.222 573.87 481.826C573.408 482.43 573.111 483.155 573.011 483.922C572.912 484.689 573.014 485.47 573.306 486.181C573.599 486.892 574.071 487.506 574.671 487.958Z" fill="#3F3D56"/>
<path d="M579.576 484.875L628.205 520.901C628.449 521.093 628.746 521.199 629.051 521.202C629.357 521.204 629.656 521.105 629.903 520.917L643.017 510.614C643.167 510.502 643.294 510.361 643.391 510.198C643.488 510.034 643.554 509.853 643.583 509.663C643.613 509.473 643.607 509.279 643.565 509.092C643.523 508.905 643.446 508.729 643.338 508.573C643.278 508.488 643.21 508.411 643.134 508.341L605.682 473.394C605.487 473.218 605.251 473.1 604.998 473.051C604.745 473.002 604.484 473.024 604.241 473.114L579.904 482.226C579.66 482.325 579.446 482.49 579.285 482.705C579.124 482.921 579.021 483.177 578.987 483.448C578.954 483.72 578.991 483.995 579.094 484.246C579.198 484.497 579.364 484.714 579.576 484.875Z" fill="white"/>
<path d="M771.337 1083.95L744.103 1083.94L731.148 974.028L771.341 974.031L771.337 1083.95Z" fill="#F0A560"/>
<path d="M778.282 1111.57L690.47 1111.57V1110.41C690.47 1105.71 691.354 1101.06 693.072 1096.72C694.79 1092.38 697.307 1088.44 700.481 1085.12C703.655 1081.8 707.423 1079.16 711.57 1077.36C715.717 1075.57 720.161 1074.64 724.649 1074.64H724.652L778.284 1074.64L778.282 1111.57Z" fill="#2F2E41"/>
<path d="M862.413 1083.95L835.179 1083.94L822.224 974.028L862.417 974.031L862.413 1083.95Z" fill="#F0A560"/>
<path d="M869.358 1111.57L781.546 1111.57V1110.41C781.546 1105.71 782.43 1101.06 784.148 1096.72C785.866 1092.38 788.383 1088.44 791.557 1085.12C794.731 1081.8 798.499 1079.16 802.646 1077.36C806.792 1075.57 811.237 1074.64 815.725 1074.64H815.728L869.36 1074.64L869.358 1111.57Z" fill="#2F2E41"/>
<path d="M861.167 1053.37C860.92 1053.37 860.674 1053.36 860.426 1053.34L829.108 1050.92C826.962 1050.74 824.926 1049.85 823.301 1048.37C821.676 1046.89 820.547 1044.91 820.079 1042.71L765.7 730.374C765.52 729.511 765.034 728.751 764.339 728.249C763.644 727.746 762.793 727.538 761.957 727.668C761.122 727.797 760.364 728.253 759.838 728.944C759.312 729.636 759.056 730.51 759.123 731.391L778.431 1039.13C778.539 1040.56 778.362 1042.01 777.91 1043.37C777.458 1044.74 776.742 1045.99 775.806 1047.05C774.87 1048.1 773.735 1048.95 772.472 1049.53C771.208 1050.11 769.845 1050.4 768.466 1050.4H744.617C742.606 1050.41 740.641 1049.77 738.98 1048.59C737.318 1047.4 736.037 1045.72 735.305 1043.76C675.327 879.406 697.047 557.382 697.219 554.143L699.441 551.818L818.901 573.402L819.153 573.658C859.97 605.03 877.634 972.41 871.144 1042.3C871.104 1045.26 870.057 1048.12 868.191 1050.36C866.319 1052.29 863.796 1053.37 861.167 1053.37Z" fill="#2F2E41"/>
<path d="M711 363.437C741.132 363.437 765.559 337.877 765.559 306.348C765.559 274.818 741.132 249.258 711 249.258C680.868 249.258 656.441 274.818 656.441 306.348C656.441 337.877 680.868 363.437 711 363.437Z" fill="#F0A560"/>
<path d="M836.129 626.438C835.574 626.438 835.02 626.38 834.476 626.264L694.356 607.45C689.339 606.391 685.76 600.79 686.03 594.415L699.44 516.952C681.67 493.708 698.462 433.678 709.32 418.501L705.121 406.609C704.038 403.521 703.973 400.143 704.934 397.011C705.759 394.063 707.653 391.57 710.211 390.062L767.077 358.447C772.118 355.644 778.033 358.513 780.266 364.836L791.417 396.415L791.246 396.508C817.948 411.484 841.608 426.3 823.837 505.33L846.117 614.475C846.042 617.917 844.717 621.199 842.41 623.654C840.744 625.404 838.49 626.403 836.129 626.438Z" fill="#0FCABF"/>
<path d="M638.427 498.481C639.322 499.362 640.15 500.316 640.902 501.333L750.804 493.387L762.594 468.246L801.179 481.906L784.441 528.535C783.088 532.302 780.605 535.508 777.363 537.672C774.121 539.837 770.295 540.842 766.461 540.538L641.487 530.621C638.72 534.642 634.849 537.686 630.389 539.349C625.928 541.011 621.089 541.214 616.516 539.929C611.943 538.644 607.852 535.932 604.788 532.155C601.723 528.378 599.83 523.714 599.361 518.783C598.891 513.853 599.867 508.89 602.159 504.554C604.451 500.218 607.951 496.715 612.192 494.511C616.433 492.307 621.214 491.507 625.901 492.216C630.587 492.925 634.956 495.11 638.427 498.481Z" fill="#F0A560"/>
<path d="M748.82 487.843C748.273 486.454 748.018 484.957 748.074 483.455C748.13 481.953 748.495 480.481 749.144 479.14L771.807 432.304C774.128 425.008 779.119 418.972 785.686 415.52C792.253 412.068 799.86 411.482 806.84 413.889C813.819 416.297 819.602 421.502 822.92 428.364C826.237 435.226 826.819 443.184 824.538 450.494L815.81 502.364C815.56 503.844 815.009 505.251 814.194 506.488C813.378 507.726 812.317 508.764 811.083 509.534C809.849 510.304 808.471 510.786 807.043 510.948C805.615 511.11 804.17 510.948 802.807 510.474L754.906 493.787C753.543 493.312 752.293 492.536 751.243 491.51C750.193 490.485 749.366 489.234 748.82 487.843Z" fill="#0FCABF"/>
<path d="M577.3 449.601C576.849 450.041 576.255 450.285 575.639 450.285C575.023 450.285 574.429 450.041 573.978 449.601L572.703 448.394C562.267 438.375 556.241 431.866 556.241 423.75C556.241 417.13 560.245 412.015 566.523 412.015C568.262 412.025 569.979 412.431 571.554 413.204C573.128 413.978 574.524 415.1 575.643 416.493C576.761 415.1 578.154 413.978 579.728 413.204C581.301 412.431 583.017 412.025 584.755 412.015C591.041 412.015 595.036 417.113 595.036 423.75C595.036 431.849 589.011 438.358 578.575 448.394L577.3 449.601Z" fill="#CA1D05"/>
<path d="M501.074 310.769C500.21 311.612 499.072 312.08 497.891 312.08C496.71 312.08 495.573 311.612 494.709 310.769L492.266 308.457C472.269 289.259 460.723 276.786 460.723 261.235C460.723 248.551 468.395 238.748 480.424 238.748C483.757 238.768 487.046 239.546 490.063 241.027C493.081 242.509 495.754 244.659 497.899 247.329C500.041 244.66 502.711 242.51 505.726 241.028C508.741 239.546 512.028 238.768 515.359 238.748C527.403 238.748 535.06 248.518 535.06 261.235C535.06 276.753 523.513 289.226 503.517 308.457L501.074 310.769Z" fill="#CA1D05"/>
<path d="M504.246 93.5426C503.124 94.6368 501.647 95.2452 500.113 95.2452C498.579 95.2452 497.102 94.6368 495.979 93.5426L492.806 90.5395C466.834 65.6046 451.837 49.4045 451.837 29.207C451.837 12.7318 461.802 0 477.425 0C481.754 0.0258312 486.026 1.03597 489.946 2.96045C493.865 4.88492 497.337 7.67777 500.123 11.1456C502.904 7.67828 506.373 4.88554 510.289 2.96098C514.205 1.03641 518.474 0.0260474 522.8 0C538.444 0 548.388 12.6895 548.388 29.207C548.388 49.3621 533.391 65.5623 507.419 90.5395L504.246 93.5426Z" fill="#CA1D05"/>
<path d="M1432.78 1112H2.22136C1.63222 1112 1.06724 1111.76 0.650654 1111.32C0.234068 1110.88 0 1110.29 0 1109.68C0 1109.06 0.234068 1108.47 0.650654 1108.03C1.06724 1107.6 1.63222 1107.35 2.22136 1107.35H1432.78C1433.37 1107.35 1433.93 1107.6 1434.35 1108.03C1434.77 1108.47 1435 1109.06 1435 1109.68C1435 1110.29 1434.77 1110.88 1434.35 1111.32C1433.93 1111.76 1433.37 1112 1432.78 1112Z" fill="#0FCABF"/>
<path d="M741.646 261.267C766.183 261.267 786.074 240.454 786.074 214.779C786.074 189.104 766.183 168.291 741.646 168.291C717.11 168.291 697.219 189.104 697.219 214.779C697.219 240.454 717.11 261.267 741.646 261.267Z" fill="#2F2E41"/>
<path d="M659.352 313.405C655.012 313.885 650.396 314.317 646.491 312.277C644.402 311.038 642.622 309.3 641.296 307.205C639.969 305.11 639.133 302.718 638.856 300.222C630.578 242.672 677.345 247.406 682.877 244.913C686.596 243.237 689.335 239.865 692.658 237.445C699.927 232.151 709.357 231.764 718.21 231.564C728.721 231.327 739.612 231.164 749.259 235.536C757.933 239.789 765.141 246.741 769.897 255.442C774.604 264.106 778.053 273.454 780.131 283.18C782.805 294.306 784.624 306.076 781.871 317.182C779.599 325.623 774.861 333.11 768.321 338.594C761.781 344.078 753.766 347.285 745.398 347.767C748.988 334.503 741.153 319.798 729.531 313.307C720.153 308.481 709.481 307.151 699.283 309.538C692.668 310.941 685.961 311.815 679.219 312.153C672.605 312.412 664.662 312.818 659.352 313.405Z" fill="#2F2E41"/>
<path d="M1371.94 492.208C1371.94 380.023 1284.97 113.815 1177.69 113.815C1070.4 113.815 983.431 380.023 983.431 492.208C983.47 546.09 1003.95 597.752 1040.38 635.839C1076.8 673.925 1126.19 695.319 1177.69 695.319C1229.18 695.319 1278.57 673.925 1314.99 635.839C1351.42 597.752 1371.9 546.09 1371.94 492.208Z" fill="#CA1D05"/>
<path d="M1177.69 1109.68C1177.1 1109.68 1176.53 1109.43 1176.11 1109C1175.7 1108.56 1175.46 1107.97 1175.46 1107.35V465.488C1175.46 464.872 1175.7 464.281 1176.11 463.845C1176.53 463.409 1177.1 463.164 1177.69 463.164C1178.27 463.164 1178.84 463.409 1179.26 463.845C1179.67 464.281 1179.91 464.872 1179.91 465.488V1107.35C1179.91 1107.97 1179.67 1108.56 1179.26 1108.99C1178.84 1109.43 1178.27 1109.68 1177.69 1109.68Z" fill="#0FCABF"/>
<path d="M1177.69 554.143C1177.37 554.143 1177.05 554.072 1176.76 553.934C1176.47 553.795 1176.22 553.593 1176.01 553.341L1064.29 418.526C1063.9 418.06 1063.71 417.453 1063.75 416.839C1063.8 416.225 1064.07 415.654 1064.51 415.251C1064.96 414.848 1065.54 414.645 1066.12 414.688C1066.71 414.731 1067.26 415.016 1067.64 415.48L1179.36 550.295C1179.64 550.632 1179.82 551.045 1179.88 551.486C1179.94 551.927 1179.88 552.377 1179.71 552.783C1179.53 553.188 1179.24 553.532 1178.89 553.773C1178.53 554.014 1178.11 554.142 1177.69 554.143Z" fill="#0FCABF"/>
<path d="M1177.69 631.947C1177.25 631.947 1176.82 631.81 1176.45 631.555C1176.09 631.299 1175.8 630.936 1175.63 630.512C1175.47 630.087 1175.42 629.62 1175.51 629.169C1175.59 628.718 1175.8 628.304 1176.11 627.979L1239.6 561.552C1239.8 561.336 1240.05 561.165 1240.32 561.048C1240.59 560.931 1240.87 560.871 1241.17 560.871C1241.46 560.871 1241.75 560.931 1242.02 561.048C1242.29 561.165 1242.53 561.336 1242.74 561.552C1242.94 561.768 1243.11 562.024 1243.22 562.306C1243.33 562.588 1243.39 562.89 1243.39 563.195C1243.39 563.5 1243.33 563.803 1243.22 564.085C1243.11 564.367 1242.94 564.623 1242.74 564.839L1179.26 631.266C1179.05 631.482 1178.81 631.654 1178.54 631.77C1178.27 631.887 1177.98 631.947 1177.69 631.947Z" fill="#0FCABF"/>
<path d="M1177.69 887.631C1177.25 887.631 1176.82 887.495 1176.45 887.239C1176.09 886.984 1175.8 886.621 1175.63 886.196C1175.47 885.772 1175.42 885.304 1175.51 884.854C1175.59 884.403 1175.8 883.989 1176.11 883.664L1239.6 817.236C1240.01 816.8 1240.58 816.556 1241.17 816.556C1241.76 816.556 1242.32 816.8 1242.74 817.236C1243.15 817.672 1243.39 818.263 1243.39 818.88C1243.39 819.496 1243.15 820.087 1242.74 820.523L1179.26 886.95C1179.05 887.167 1178.81 887.338 1178.54 887.455C1178.27 887.572 1177.98 887.632 1177.69 887.631Z" fill="#0FCABF"/>
</g>
<defs>
<clipPath id="clip0_726_1096">
<rect width="1435" height="1112" fill="white"/>
</clipPath>
</defs>
</svg>
